mtllib SM_Barrel01_LOD4.mtl
g SM_Barrel01_LOD4
#Vertices 74
#Indices 168
#Section 0 Offset 0 NumIndices 168 MaterialIndex 0 MI_BarrelsandCoins
v 0.194503 0.009166 -0.163652
v -0.180973 0.010438 -0.198781
v 0.051458 0.044728 -0.263103
v -0.245753 0.771034 0.099300
v -0.054587 0.812781 0.261014
v -0.247122 0.838356 -0.135309
v 0.241648 0.804880 0.064728
v 0.344381 0.643755 0.029378
v 0.164302 0.696094 0.290570
v -0.054587 0.812781 0.261014
v -0.179280 0.696230 0.291412
v -0.385340 0.693389 -0.089435
v -0.247122 0.838356 -0.135309
v -0.014144 0.702024 -0.372049
v 0.087854 0.791846 -0.258268
v 0.344381 0.643755 0.029378
v 0.241648 0.804880 0.064728
v 0.164302 0.696094 0.290570
v 0.344381 0.643755 0.029378
v 0.009123 0.624227 0.371933
v -0.179280 0.696230 0.291412
v -0.322935 0.616222 0.164431
v -0.385340 0.693389 -0.089435
v -0.313157 0.621506 -0.243139
v -0.014144 0.702024 -0.372049
v 0.157733 0.623387 -0.348969
v 0.344381 0.643755 0.029378
v 0.073074 0.193213 0.358024
v 0.344381 0.643755 0.029378
v 0.320692 0.162361 0.050752
v 0.009123 0.624227 0.371933
v -0.408808 0.195841 0.074670
v -0.322935 0.616222 0.164431
v -0.313157 0.621506 -0.243139
v -0.034515 0.193921 -0.366779
v 0.157733 0.623387 -0.348969
v 0.298732 0.195361 -0.196644
v 0.344381 0.643755 0.029378
v 0.320692 0.162361 0.050752
v 0.073074 0.193213 0.358024
v 0.320692 0.162361 0.050752
v 0.201525 0.119194 0.261700
v -0.216116 0.119552 0.302200
v -0.408808 0.195841 0.074670
v -0.321194 0.119071 -0.185674
v -0.034515 0.193921 -0.366779
v 0.195163 0.117587 -0.350229
v 0.298732 0.195361 -0.196644
v 0.320692 0.162361 0.050752
v 0.087854 0.791846 -0.258268
v 0.241648 0.804880 0.064728
v -0.054587 0.812781 0.261014
v -0.245753 0.771034 0.099300
v -0.247122 0.838356 -0.135309
v 0.121608 -0.016840 0.223761
v 0.320692 0.162361 0.050752
v 0.246948 0.009391 0.022366
v 0.201525 0.119194 0.261700
v -0.216116 0.119552 0.302200
v -0.143484 0.028753 0.205766
v -0.269356 0.012602 0.034473
v -0.321194 0.119071 -0.185674
v -0.180973 0.010438 -0.198781
v 0.195163 0.117587 -0.350229
v 0.194503 0.009166 -0.163652
v 0.246948 0.009391 0.022366
v 0.320692 0.162361 0.050752
v -0.143484 0.028753 0.205766
v 0.121608 -0.016840 0.223761
v 0.246948 0.009391 0.022366
v 0.194503 0.009166 -0.163652
v 0.051458 0.044728 -0.263103
v -0.180973 0.010438 -0.198781
v -0.269356 0.012602 0.034473
vt 0.897461 0.088867
vt 0.896484 0.265137
vt 0.883789 0.161133
vt 0.835938 0.273438
vt 0.854492 0.166504
vt 0.859863 0.363281
vt 0.650879 0.022949
vt 0.735840 -0.008789
vt 0.709473 0.119629
vt 0.649902 0.216309
vt 0.707520 0.261719
vt 0.705078 0.439941
vt 0.639648 0.465820
vt 0.706055 0.617676
vt 0.650879 0.679932
vt 0.726074 0.852173
vt 0.656250 0.867676
vt 0.800781 0.135254
vt 0.824219 -0.006836
vt 0.832520 0.206055
vt 0.799805 0.293457
vt 0.834473 0.377930
vt 0.799805 0.487793
vt 0.833984 0.558838
vt 0.799805 0.701172
vt 0.832520 0.773315
vt 0.806152 0.952759
vt 0.183105 0.176758
vt -0.011330 -0.007812
vt 0.199341 0.002930
vt -0.003139 0.201660
vt 0.187012 0.413574
vt 0.001131 0.367188
vt -0.002380 0.540039
vt 0.185913 0.669922
vt -0.002695 0.750244
vt 0.184082 0.834473
vt -0.010345 0.936462
vt 0.199341 0.943329
vt 0.799316 0.789185
vt 0.784180 0.962189
vt 0.764648 0.852905
vt 0.766113 0.663818
vt 0.809570 0.542236
vt 0.765137 0.435059
vt 0.796875 0.279297
vt 0.761230 0.185547
vt 0.797363 0.110352
vt 0.780762 0.001465
vt 0.499512 0.146484
vt 0.591309 0.273438
vt 0.478027 0.382324
vt 0.381348 0.326172
vt 0.361572 0.220215
vt 0.774902 0.125000
vt 0.690430 0.000977
vt 0.762207 0.000977
vt 0.707520 0.100586
vt 0.706543 0.269043
vt 0.757812 0.267578
vt 0.760742 0.376465
vt 0.708008 0.474121
vt 0.762695 0.524170
vt 0.706543 0.692871
vt 0.769043 0.735352
vt 0.760254 0.846558
vt 0.690430 0.854980
vt 0.629395 0.411621
vt 0.628906 0.525635
vt 0.548340 0.583252
vt 0.468750 0.561035
vt 0.422852 0.497070
vt 0.451416 0.393555
vt 0.554199 0.354980
vt1 0.389893 0.260254
vt1 0.388672 0.418457
vt1 0.377441 0.325195
vt1 0.330322 0.419922
vt1 0.346680 0.323730
vt1 0.351807 0.500244
vt1 0.185181 0.265625
vt1 0.263672 0.237305
vt1 0.239014 0.350098
vt1 0.184326 0.434082
vt1 0.237427 0.474121
vt1 0.234863 0.629395
vt1 0.174438 0.652100
vt1 0.236206 0.784790
vt1 0.185059 0.839111
vt1 0.254395 0.989449
vt1 0.189819 1.002958
vt1 0.684082 0.249023
vt1 0.705078 0.122070
vt1 0.712891 0.312012
vt1 0.683105 0.390137
vt1 0.714355 0.465820
vt1 0.683105 0.563721
vt1 0.713867 0.627197
vt1 0.683105 0.754395
vt1 0.712402 0.818848
vt1 0.688965 0.979080
vt1 0.171021 0.312500
vt1 -0.004417 0.147949
vt1 0.185669 0.157715
vt1 0.002970 0.334961
vt1 0.174438 0.523682
vt1 0.006824 0.482422
vt1 0.003654 0.636230
vt1 0.173584 0.752075
vt1 0.003370 0.823730
vt1 0.171875 0.898682
vt1 -0.003534 0.989616
vt1 0.185669 0.995766
vt1 0.762207 0.833008
vt1 0.748535 0.987511
vt1 0.730469 0.889893
vt1 0.731934 0.720947
vt1 0.771484 0.612305
vt1 0.731445 0.516846
vt1 0.759766 0.377441
vt1 0.727539 0.293945
vt1 0.760254 0.226562
vt1 0.745605 0.129395
vt1 0.385498 0.795166
vt1 0.467773 0.909180
vt1 0.366211 1.006756
vt1 0.279541 0.956268
vt1 0.261719 0.861572
vt1 0.325439 0.148438
vt1 0.247437 0.040039
vt1 0.313965 0.040527
vt1 0.263428 0.126953
vt1 0.262451 0.273438
vt1 0.309814 0.272461
vt1 0.312500 0.367188
vt1 0.263916 0.452637
vt1 0.314453 0.496094
vt1 0.262207 0.643066
vt1 0.320312 0.679932
vt1 0.312012 0.776855
vt1 0.247803 0.784180
vt1 0.658691 0.846436
vt1 0.658203 0.948486
vt1 0.585938 1.000097
vt1 0.514648 0.980331
vt1 0.473633 0.923035
vt1 0.499268 0.830200
vt1 0.591309 0.795654
vn -0.803150 0.000000 0.598425
vn 0.653543 0.000000 0.755905
vn -0.251969 0.000000 0.968504
vn 0.905512 -0.000000 -0.425197
vn 0.133858 -0.000000 -0.992126
vn 0.960630 0.000000 0.283465
vn 0.905512 0.236220 0.346457
vn 0.960630 0.259842 0.062992
vn 0.496063 0.236221 0.834646
vn -0.173228 0.244095 0.952756
vn -0.472441 0.244095 0.850394
vn -0.944882 0.244094 -0.204724
vn -0.881890 0.275590 -0.385827
vn 0.000000 0.267716 -0.960630
vn 0.448819 0.259842 -0.850394
vn 0.968504 0.236220 0.086614
vn 0.937008 0.244094 0.251968
vn 0.511811 0.078740 0.858268
vn 0.984252 0.078740 0.141732
vn 0.078740 0.070866 0.992126
vn -0.480315 0.078740 0.874016
vn -0.866142 0.078740 0.488189
vn -0.976378 0.070866 -0.204724
vn -0.779528 0.070866 -0.622047
vn 0.023622 0.070866 -1.000000
vn 0.464567 0.078740 -0.881890
vn 1.000000 0.070866 0.015748
vn 0.251969 -0.141732 0.960630
vn 0.976378 0.165354 0.118110
vn 0.968504 -0.181102 0.173228
vn 0.070866 0.141732 0.984252
vn -0.968504 -0.133858 0.220472
vn -0.858268 0.149606 0.488189
vn -0.779528 0.149606 -0.606299
vn -0.062992 -0.157480 -0.984252
vn 0.448819 0.149606 -0.881890
vn 0.850394 -0.149606 -0.496063
vn 0.968504 0.173228 0.157480
vn 0.960630 -0.181102 0.196850
vn 0.220472 -0.078740 0.968504
vn 0.976378 -0.078740 0.212598
vn 0.598425 -0.078740 0.795275
vn -0.566929 -0.070866 0.818897
vn -0.984252 -0.070866 0.173228
vn -0.881890 -0.078740 -0.472441
vn -0.062992 -0.070866 -0.992126
vn 0.496063 -0.070866 -0.866142
vn 0.866142 -0.078740 -0.496063
vn 0.984252 -0.078740 0.165354
vn 0.000000 1.000000 -0.000000
vn 0.000000 1.000000 -0.000000
vn 0.000000 1.000000 -0.000000
vn 0.000000 1.000000 -0.000000
vn 0.000000 1.000000 -0.000000
vn 0.448819 -0.283464 0.842520
vn 0.944882 -0.291339 0.157480
vn 0.944882 -0.299213 0.157480
vn 0.590551 -0.283464 0.755905
vn -0.551181 -0.267716 0.795276
vn -0.511811 -0.299212 0.811024
vn -0.929134 -0.299213 0.204724
vn -0.834646 -0.283465 -0.464567
vn -0.606299 -0.299213 -0.740157
vn 0.480315 -0.251969 -0.842520
vn 0.708661 -0.291339 -0.645669
vn 0.944882 -0.299213 0.125984
vn 0.937008 -0.299213 0.181102
vn 0.000000 -1.000000 0.000000
vn 0.000000 -1.000000 0.000000
vn 0.000000 -1.000000 0.000000
vn 0.000000 -1.000000 0.000000
vn 0.000000 -1.000000 0.000000
vn 0.000000 -1.000000 0.000000
vn 0.000000 -1.000000 0.000000
tan 0.598425 0.000000 0.803149 1.000000
tan 0.755906 -0.000000 -0.653543 1.000000
tan 0.968504 0.000000 0.251968 1.000000
tan 0.425197 0.000000 0.905512 1.000000
tan 0.992126 0.000000 0.133858 1.000000
tan -0.283465 0.000000 0.960630 1.000000
tan 0.359477 -0.049910 -0.905512 1.000000
tan 0.093186 -0.113460 -0.953066 1.000000
tan 0.834646 0.059148 -0.512803 1.000000
tan 0.952756 -0.060016 0.188604 1.000000
tan 0.845620 -0.083328 0.493707 1.000000
tan -0.204724 0.000000 0.944882 1.000000
tan -0.394507 -0.027776 0.881890 1.000000
tan -0.960630 0.007564 0.002108 1.000000
tan -0.852440 -0.003162 -0.450865 1.000000
tan 0.071734 0.061008 -0.968504 1.000000
tan 0.263501 -0.044268 -0.937008 1.000000
tan 0.858268 0.013516 -0.513051 1.000000
tan 0.142972 -0.015500 -0.984252 1.000000
tan 0.992126 -0.000000 -0.078740 1.000000
tan 0.874016 -0.006882 0.480935 1.000000
tan 0.490049 0.020460 0.866142 1.000000
tan -0.204724 0.000000 0.976378 1.000000
tan -0.622605 -0.001240 0.780085 1.000000
tan -1.000000 -0.007874 -0.024180 1.000000
tan -0.881890 -0.006944 -0.465187 1.000000
tan 0.015190 0.007874 -1.000000 1.000000
tan 0.960630 -0.007564 -0.253084 1.000000
tan 0.123318 -0.030752 -0.976378 1.000000
tan 0.178932 0.030504 -0.968504 1.000000
tan 0.984252 -0.000000 -0.070866 1.000000
tan 0.221526 -0.007626 0.968504 1.000000
tan 0.489367 0.006758 0.858268 1.000000
tan -0.607477 -0.001364 0.780705 1.000000
tan -0.984252 -0.015500 0.065472 1.000000
tan -0.881890 -0.006944 -0.449997 1.000000
tan -0.498419 -0.013392 -0.850394 1.000000
tan 0.158844 -0.007626 -0.968504 1.000000
tan 0.198276 0.007564 -0.960630 1.000000
tan -0.968504 0.000000 0.220472 1.000000
tan -0.213838 -0.015376 0.976378 1.000000
tan -0.795276 0.006262 0.599045 1.000000
tan -0.818898 -0.006448 -0.567487 1.000000
tan -0.173786 0.007750 -0.984252 1.000000
tan 0.473061 -0.006944 -0.881890 1.000000
tan 0.992126 0.007812 -0.063550 1.000000
tan 0.866142 0.000000 0.496063 1.000000
tan 0.497303 0.013640 0.866142 1.000000
tan -0.165354 0.000000 0.984252 1.000000
tan 0.173228 -0.000000 -0.984252 1.000000
tan 0.173228 -0.000000 -0.984252 1.000000
tan 0.173228 -0.000000 -0.984252 1.000000
tan 0.173228 -0.000000 -0.984252 1.000000
tan 0.173228 -0.000000 -0.984252 1.000000
tan 0.842520 -0.053072 -0.466675 1.000000
tan 0.199826 0.141360 -0.937442 1.000000
tan 0.176328 0.058280 -0.947238 1.000000
tan 0.758882 -0.046872 -0.610453 1.000000
tan 0.803708 0.045260 0.572261 1.000000
tan 0.815736 0.062186 0.537727 1.000000
tan 0.221216 -0.051212 0.929134 1.000000
tan -0.487693 0.075206 0.830306 1.000000
tan -0.742513 -0.024366 0.618079 1.000000
tan -0.844504 0.002852 -0.482299 1.000000
tan -0.652551 0.013764 -0.722425 1.000000
tan 0.123628 -0.008432 -0.947238 1.000000
tan 0.207948 0.088536 -0.929630 1.000000
tan -1.000000 0.000000 0.000000 1.000000
tan -1.000000 0.000000 0.000000 1.000000
tan -1.000000 0.000000 0.000000 1.000000
tan -1.000000 0.000000 0.000000 1.000000
tan -1.000000 0.000000 0.000000 1.000000
tan -1.000000 0.000000 0.000000 1.000000
tan -1.000000 0.000000 0.000000 1.000000
f 3/3/3 2/2/2 1/1/1
f 6/6/6 5/5/5 4/4/4
f 9/9/9 8/8/8 7/7/7
f 10/10/10 9/9/9 7/7/7
f 9/9/9 10/10/10 11/11/11
f 11/11/11 10/10/10 12/12/12
f 13/13/13 12/12/12 10/10/10
f 14/14/14 12/12/12 13/13/13
f 14/14/14 13/13/13 15/15/15
f 16/16/16 14/14/14 15/15/15
f 16/16/16 15/15/15 17/17/17
f 20/20/20 19/19/19 18/18/18
f 21/21/21 20/20/20 18/18/18
f 20/20/20 21/21/21 22/22/22
f 23/23/23 22/22/22 21/21/21
f 24/24/24 22/22/22 23/23/23
f 25/25/25 24/24/24 23/23/23
f 24/24/24 25/25/25 26/26/26
f 27/27/27 26/26/26 25/25/25
f 30/30/30 29/29/29 28/28/28
f 28/28/28 29/29/29 31/31/31
f 28/28/28 31/31/31 32/32/32
f 33/33/33 32/32/32 31/31/31
f 34/34/34 32/32/32 33/33/33
f 35/35/35 32/32/32 34/34/34
f 34/34/34 36/36/36 35/35/35
f 35/35/35 36/36/36 37/37/37
f 36/36/36 38/38/38 37/37/37
f 38/38/38 39/39/39 37/37/37
f 42/42/42 41/41/41 40/40/40
f 43/43/43 42/42/42 40/40/40
f 40/40/40 44/44/44 43/43/43
f 44/44/44 45/45/45 43/43/43
f 44/44/44 46/46/46 45/45/45
f 47/47/47 45/45/45 46/46/46
f 46/46/46 48/48/48 47/47/47
f 48/48/48 49/49/49 47/47/47
f 52/52/52 51/51/51 50/50/50
f 50/50/50 53/53/53 52/52/52
f 54/54/54 53/53/53 50/50/50
f 57/57/57 56/56/56 55/55/55
f 58/58/58 55/55/55 56/56/56
f 55/55/55 58/58/58 59/59/59
f 55/55/55 59/59/59 60/60/60
f 59/59/59 61/61/61 60/60/60
f 61/61/61 59/59/59 62/62/62
f 63/63/63 61/61/61 62/62/62
f 62/62/62 64/64/64 63/63/63
f 63/63/63 64/64/64 65/65/65
f 65/65/65 64/64/64 66/66/66
f 67/67/67 66/66/66 64/64/64
f 70/70/70 69/69/69 68/68/68
f 71/71/71 70/70/70 68/68/68
f 72/72/72 71/71/71 68/68/68
f 73/73/73 72/72/72 68/68/68
f 74/74/74 73/73/73 68/68/68
