mtllib SM_Coin01_LOD4.mtl
g SM_Coin01_LOD4
#Vertices 12
#Indices 18
#Section 0 Offset 0 NumIndices 18 MaterialIndex 0 MI_BarrelsandCoins
v -0.020518 0.029833 -0.054221
v -0.035408 -0.003725 0.060128
v -0.047089 0.002031 -0.027164
v 0.038345 0.019545 0.045185
v -0.035408 -0.003725 0.060128
v -0.020518 0.029833 -0.054221
v 0.055041 -0.001513 -0.010843
v 0.055041 -0.001513 -0.010843
v -0.035408 -0.003725 0.060128
v 0.038345 0.019545 0.045185
v -0.047089 0.002031 -0.027164
v -0.020518 0.029833 -0.054221
vt 0.450684 0.954224
vt 0.553711 0.972855
vt 0.478027 0.971313
vt 0.499268 0.616943
vt 0.511230 0.677490
vt 0.417969 0.663574
vt 0.452881 0.602783
vt 0.553223 0.814819
vt 0.610840 0.739990
vt 0.599609 0.801880
vt 0.540039 0.731689
vt 0.518555 0.751953
vt1 0.881836 0.300781
vt1 0.819824 0.641846
vt1 0.825195 0.391602
vt1 0.755859 0.980545
vt1 0.493164 1.032898
vt1 0.552734 0.628174
vt1 0.816406 0.779663
vt1 0.568848 0.637939
vt1 0.817871 0.313965
vt1 0.770020 0.582031
vt1 0.511230 0.277832
vt1 0.418457 0.365723
vn -0.559055 -0.070866 -0.826772
vn -0.551181 -0.078740 0.834646
vn -0.874016 -0.047244 -0.480315
vn -0.338583 0.826771 -0.448819
vn 0.393701 0.685039 -0.614173
vn 0.188976 0.818898 0.543307
vn -0.590551 0.795275 0.133858
vn -0.464567 -0.881890 0.094488
vn 0.314961 -0.787401 -0.535433
vn -0.385827 -0.826772 -0.409449
vn 0.433071 -0.874016 0.220473
vn 0.188976 -0.787401 0.590551
tan -0.037386 0.998016 -0.060264 1.000000
tan -0.013640 0.916982 0.077500 1.000000
tan -0.046872 0.938992 -0.007068 1.000000
tan 0.826772 0.363321 0.045570 1.000000
tan 0.648769 -0.619381 -0.274970 1.000000
tan 0.827454 -0.176142 -0.022320 1.000000
tan 0.796330 0.592659 -0.007874 1.000000
tan -0.881890 0.464567 -0.000000 1.000000
tan -0.785666 -0.421353 0.157480 1.000000
tan -0.804018 0.466985 -0.185318 1.000000
tan -0.872280 -0.450431 -0.072230 1.000000
tan -0.885052 -0.142662 0.093000 1.000000
f 3/3/3 2/2/2 1/1/1
f 6/6/6 5/5/5 4/4/4
f 7/7/7 6/6/6 4/4/4
f 10/10/10 9/9/9 8/8/8
f 9/9/9 11/11/11 8/8/8
f 11/11/11 12/12/12 8/8/8
