mtllib SM_Coin01_LOD1.mtl
g SM_Coin01_LOD1
#Vertices 66
#Indices 162
#Section 0 Offset 0 NumIndices 162 MaterialIndex 0 MI_BarrelsandCoins
v -0.000000 0.003443 -0.057668
v -0.035307 0.001967 -0.038868
v -0.000000 0.000000 -0.049600
v 0.033867 0.001116 -0.041028
v 0.050674 0.003443 0.028834
v 0.050997 0.002695 -0.009792
v 0.042955 -0.000000 0.024800
v 0.018265 0.001390 0.049443
v -0.020013 0.003443 0.054190
v -0.016964 -0.000000 0.046609
v -0.046492 0.002241 0.023736
v 0.031882 0.018618 -0.037996
v 0.048747 0.015612 -0.008914
v -0.000226 0.015468 -0.049170
v 0.042861 0.014761 0.022301
v -0.033729 0.016949 -0.040843
v -0.047523 0.014751 -0.009921
v -0.016945 0.015617 0.046638
v 0.016964 0.018618 0.046609
v -0.042955 0.018618 0.024800
v 0.057624 0.014357 -0.010307
v 0.033867 0.001116 -0.041028
v 0.050997 0.002695 -0.009792
v 0.037612 0.014357 -0.045471
v -0.000000 0.003443 -0.057668
v -0.000000 0.014357 -0.059358
v -0.033729 0.016949 -0.040843
v -0.035307 0.001967 -0.038868
v -0.057624 0.014357 -0.010307
v -0.051949 0.001655 -0.009217
v -0.046492 0.002241 0.023736
v -0.050674 0.014357 0.029679
v -0.020013 0.003443 0.054190
v -0.020013 0.014357 0.055778
v 0.020013 0.014357 0.055778
v 0.018265 0.001390 0.049443
v 0.050674 0.014357 0.029679
v 0.050674 0.003443 0.028834
v 0.057624 0.014357 -0.010307
v 0.050997 0.002695 -0.009792
v -0.035307 0.001967 -0.038868
v 0.033867 0.001116 -0.041028
v -0.000000 0.000000 -0.049600
v 0.050997 0.002695 -0.009792
v -0.051949 0.001655 -0.009217
v -0.046492 0.002241 0.023736
v 0.018265 0.001390 0.049443
v 0.042955 -0.000000 0.024800
v -0.016964 -0.000000 0.046609
v -0.033729 0.016949 -0.040843
v -0.000000 0.014357 -0.059358
v -0.000226 0.015468 -0.049170
v 0.037612 0.014357 -0.045471
v 0.031882 0.018618 -0.037996
v 0.057624 0.014357 -0.010307
v 0.048747 0.015612 -0.008914
v 0.042861 0.014761 0.022301
v 0.050674 0.014357 0.029679
v 0.016964 0.018618 0.046609
v 0.020013 0.014357 0.055778
v -0.020013 0.014357 0.055778
v -0.016945 0.015617 0.046638
v -0.050674 0.014357 0.029679
v -0.042955 0.018618 0.024800
v -0.057624 0.014357 -0.010307
v -0.047523 0.014751 -0.009921
vt 0.359375 0.790527
vt 0.373535 0.763672
vt 0.365967 0.790649
vt 0.371826 0.816284
vt 0.424805 0.829102
vt 0.395508 0.829468
vt 0.421387 0.822754
vt 0.440186 0.804321
vt 0.443848 0.775391
vt 0.437500 0.777832
vt 0.420898 0.755127
vt 0.429932 0.620605
vt 0.454590 0.607910
vt 0.422119 0.647461
vt 0.480225 0.612549
vt 0.428711 0.674805
vt 0.453857 0.686279
vt 0.500000 0.661377
vt 0.501465 0.632812
vt 0.483154 0.684082
vt 0.362305 0.960785
vt 0.395508 0.971802
vt 0.365479 0.970398
vt 0.395264 0.960785
vt 0.428223 0.969696
vt 0.428223 0.960785
vt 0.460938 0.960510
vt 0.463379 0.971527
vt 0.494385 0.960785
vt 0.494141 0.971176
vt 0.524414 0.971237
vt 0.527344 0.960785
vt 0.560059 0.969696
vt 0.560059 0.960785
vt 0.593262 0.960785
vt 0.593750 0.971756
vt 0.626465 0.960785
vt 0.626465 0.969696
vt 0.659180 0.960785
vt 0.658203 0.970276
vt 0.530273 0.741211
vt 0.528320 0.797363
vt 0.520508 0.769775
vt 0.554199 0.811523
vt 0.554199 0.727539
vt 0.581543 0.731689
vt 0.602539 0.784912
vt 0.583008 0.806152
vt 0.601562 0.755493
vt 0.219238 0.761841
vt 0.247803 0.738770
vt 0.249390 0.748291
vt 0.285400 0.745605
vt 0.280762 0.754395
vt 0.310059 0.775513
vt 0.302002 0.778320
vt 0.301758 0.808838
vt 0.310059 0.814575
vt 0.280518 0.835327
vt 0.285400 0.844360
vt 0.247803 0.850830
vt 0.249023 0.842041
vt 0.214722 0.831299
vt 0.221924 0.824829
vt 0.201782 0.794556
vt 0.210693 0.793213
vt1 0.008064 0.350586
vt1 0.074646 0.224121
vt1 0.039734 0.350586
vt1 0.067322 0.471680
vt1 0.315674 0.531738
vt1 0.178223 0.533447
vt1 0.300049 0.502197
vt1 0.388428 0.415527
vt1 0.406250 0.278809
vt1 0.376465 0.291016
vt1 0.298096 0.183594
vt1 0.739746 0.679932
vt1 0.794434 0.787476
vt1 0.622559 0.646240
vt1 0.774414 0.898315
vt1 0.504883 0.675293
vt1 0.455322 0.784546
vt1 0.562988 0.985001
vt1 0.686523 0.991936
vt1 0.464111 0.910706
vt1 0.859863 0.008301
vt1 0.823242 0.118652
vt1 0.828125 0.019043
vt1 0.859863 0.117676
vt1 0.830566 0.227051
vt1 0.859863 0.227051
vt1 0.860840 0.335449
vt1 0.824219 0.343262
vt1 0.859863 0.445801
vt1 0.825684 0.444824
vt1 0.825195 0.545654
vt1 0.859863 0.554688
vt1 0.830566 0.664062
vt1 0.859863 0.664062
vt1 0.859863 0.773315
vt1 0.823730 0.774536
vt1 0.859863 0.882629
vt1 0.830566 0.882629
vt1 0.859863 0.991936
vt1 0.828613 0.988152
vt1 0.469727 0.318848
vt1 0.461426 0.562500
vt1 0.427246 0.442871
vt1 0.572754 0.623779
vt1 0.574219 0.260254
vt1 0.691406 0.278320
vt1 0.782715 0.508545
vt1 0.697266 0.600342
vt1 0.777344 0.381348
vt1 0.073547 0.659424
vt1 0.180420 0.573242
vt1 0.185913 0.608398
vt1 0.321045 0.598877
vt1 0.303711 0.631592
vt1 0.413086 0.710938
vt1 0.383301 0.720947
vt1 0.382324 0.835327
vt1 0.413086 0.856689
vt1 0.302979 0.934204
vt1 0.320801 0.967590
vt1 0.180176 0.991936
vt1 0.184570 0.959015
vt1 0.056488 0.918945
vt1 0.083374 0.894775
vt1 0.008064 0.781738
vt1 0.041534 0.776611
vn 0.000000 -0.921260 -0.385827
vn -0.251969 -0.929134 -0.283464
vn 0.000000 -0.921260 -0.385827
vn 0.244094 -0.929134 -0.291338
vn 0.322835 -0.929134 0.181102
vn 0.354331 -0.929134 -0.070866
vn 0.314961 -0.929134 0.188976
vn 0.133858 -0.921260 0.362205
vn -0.133858 -0.921260 0.362205
vn -0.125984 -0.921260 0.362205
vn -0.330709 -0.929134 0.173228
vn -0.456693 0.700787 0.551181
vn -0.519685 0.842520 0.102362
vn 0.023622 0.858268 0.503937
vn -0.409449 0.889764 -0.204724
vn 0.346457 0.826772 0.433071
vn 0.472441 0.874016 0.118110
vn 0.181102 0.850394 -0.496063
vn -0.244094 0.700787 -0.669291
vn 0.622047 0.700787 -0.354331
vn 0.866142 -0.039370 -0.496063
vn 0.653543 -0.086614 -0.755905
vn 0.850394 -0.039370 -0.527559
vn 0.629921 -0.086614 -0.771653
vn 0.000000 -0.133858 -0.992126
vn 0.000000 -0.133858 -0.992126
vn -0.622047 -0.086614 -0.779527
vn -0.685039 -0.078740 -0.724409
vn -0.984252 -0.023622 -0.181102
vn -0.984252 -0.023622 -0.173228
vn -0.897638 -0.047244 0.433071
vn -0.858268 -0.047244 0.511811
vn -0.346457 -0.118110 0.929134
vn -0.330709 -0.125984 0.937008
vn 0.330709 -0.125984 0.937008
vn 0.362205 -0.118110 0.921260
vn 0.858268 -0.047244 0.511811
vn 0.874016 -0.047244 0.488189
vn 0.984252 -0.007874 0.173228
vn 0.984252 -0.007874 0.181102
vn 0.322835 -0.881890 0.338583
vn -0.314961 -0.858268 0.401575
vn 0.000000 -0.771653 0.637795
vn -0.433071 -0.897638 0.086614
vn 0.488189 -0.866142 0.094488
vn 0.417323 -0.889764 -0.196850
vn -0.173228 -0.866142 -0.464567
vn -0.551181 -0.771653 -0.314961
vn 0.220472 -0.771653 -0.598425
vn -0.259843 0.913386 -0.322835
vn 0.000000 0.913386 -0.401575
vn 0.000000 0.913386 -0.401575
vn 0.267717 0.913386 -0.314961
vn 0.275591 0.913386 -0.314961
vn 0.417323 0.905512 -0.070866
vn 0.417323 0.905512 -0.070866
vn 0.377953 0.905512 0.188976
vn 0.362205 0.905512 0.212598
vn 0.141732 0.913386 0.377953
vn 0.141732 0.913386 0.377953
vn -0.141732 0.913386 0.377953
vn -0.141732 0.913386 0.377953
vn -0.362205 0.905512 0.212598
vn -0.370079 0.905512 0.204724
vn -0.417323 0.905512 -0.070866
vn -0.417323 0.905512 -0.086614
tan -0.951640 0.000000 0.000000 1.000000
tan -0.929134 0.263128 -0.036580 1.000000
tan -0.951640 0.000000 0.000000 1.000000
tan -0.929134 -0.255564 0.036580 1.000000
tan -0.933412 -0.328539 -0.021638 1.000000
tan -0.929134 -0.354889 0.007316 1.000000
tan -0.935086 -0.320913 -0.019344 1.000000
tan -0.924112 -0.148118 -0.035216 1.000000
tan -0.944076 0.145266 0.020584 1.000000
tan -0.944076 0.140244 0.028334 1.000000
tan -0.929134 0.334801 0.021948 1.000000
tan 0.852378 0.511253 0.056234 1.000000
tan 0.844132 0.521297 -0.005084 1.000000
tan 0.878108 0.016058 -0.068510 1.000000
tan 0.889764 0.414285 0.021018 1.000000
tan 0.830492 -0.405109 0.108996 1.000000
tan 0.874946 -0.474301 0.010044 1.000000
tan 0.872156 -0.248558 -0.107694 1.000000
tan 0.951082 0.303801 -0.028768 1.000000
tan 0.754046 -0.641515 0.054994 1.000000
tan 0.038750 0.946246 -0.007440 1.000000
tan 0.038874 0.965900 -0.077066 1.000000
tan 0.039060 0.901854 -0.004340 1.000000
tan 0.040920 0.978114 -0.076384 1.000000
tan 0.000000 0.992126 -0.133858 1.000000
tan 0.000000 0.992126 -0.133858 1.000000
tan -0.029326 0.947176 -0.081840 1.000000
tan -0.044640 0.981586 -0.064480 1.000000
tan -0.023622 0.985678 -0.000186 1.000000
tan -0.023622 0.984252 -0.000000 1.000000
tan -0.047244 0.914688 0.001860 1.000000
tan -0.046128 0.942774 0.009672 1.000000
tan -0.006510 0.948230 0.118110 1.000000
tan -0.005952 0.952632 0.125984 1.000000
tan 0.005952 0.952632 0.125984 1.000000
tan 0.001860 0.926964 0.118110 1.000000
tan 0.046128 0.942774 0.009672 1.000000
tan 0.046500 0.944820 0.008184 1.000000
tan 0.007874 0.985616 0.000062 1.000000
tan 0.007874 0.984252 -0.000000 1.000000
tan -0.874946 -0.357617 -0.097216 1.000000
tan -0.860996 0.359911 0.093930 1.000000
tan -0.985802 -0.015066 -0.018228 1.000000
tan -0.897638 0.433071 -0.000000 1.000000
tan -0.866142 -0.489677 -0.013640 1.000000
tan -0.889764 -0.432823 0.070060 1.000000
tan -0.866638 0.230392 -0.106392 1.000000
tan -0.804142 0.572261 0.005208 1.000000
tan -0.947114 -0.278009 0.009548 1.000000
tan 0.103230 -0.291649 -0.908240 1.000000
tan 0.125426 -0.398413 -0.906194 1.000000
tan 0.100688 -0.398413 -0.906194 1.000000
tan 0.174592 -0.362329 -0.902350 1.000000
tan 0.174592 -0.363941 -0.902660 1.000000
tan 0.214334 -0.169942 -0.909294 1.000000
tan 0.269267 -0.192386 -0.872590 1.000000
tan 0.166966 0.117552 -0.897204 1.000000
tan 0.146754 0.157914 -0.922624 1.000000
tan 0.122760 0.358237 -0.911774 1.000000
tan 0.119784 0.358237 -0.910658 1.000000
tan 0.145080 0.395437 -0.901234 1.000000
tan 0.129456 0.395065 -0.906194 1.000000
tan 0.205964 0.294314 -0.902660 1.000000
tan 0.206522 0.288610 -0.903218 1.000000
tan 0.192634 0.016244 -0.926840 1.000000
tan 0.215946 0.014694 -0.886850 1.000000
f 3/3/3 2/2/2 1/1/1
f 4/4/4 3/3/3 1/1/1
f 7/7/7 6/6/6 5/5/5
f 7/7/7 5/5/5 8/8/8
f 10/10/10 8/8/8 9/9/9
f 10/10/10 9/9/9 11/11/11
f 14/14/14 13/13/13 12/12/12
f 13/13/13 14/14/14 15/15/15
f 14/14/14 16/16/16 15/15/15
f 16/16/16 17/17/17 15/15/15
f 17/17/17 18/18/18 15/15/15
f 15/15/15 18/18/18 19/19/19
f 17/17/17 20/20/20 18/18/18
f 23/23/23 22/22/22 21/21/21
f 22/22/22 24/24/24 21/21/21
f 22/22/22 25/25/25 24/24/24
f 25/25/25 26/26/26 24/24/24
f 26/26/26 25/25/25 27/27/27
f 28/28/28 27/27/27 25/25/25
f 27/27/27 28/28/28 29/29/29
f 30/30/30 29/29/29 28/28/28
f 30/30/30 31/31/31 29/29/29
f 31/31/31 32/32/32 29/29/29
f 31/31/31 33/33/33 32/32/32
f 33/33/33 34/34/34 32/32/32
f 34/34/34 33/33/33 35/35/35
f 36/36/36 35/35/35 33/33/33
f 35/35/35 36/36/36 37/37/37
f 38/38/38 37/37/37 36/36/36
f 37/37/37 38/38/38 39/39/39
f 40/40/40 39/39/39 38/38/38
f 43/43/43 42/42/42 41/41/41
f 41/41/41 42/42/42 44/44/44
f 45/45/45 41/41/41 44/44/44
f 46/46/46 45/45/45 44/44/44
f 47/47/47 46/46/46 44/44/44
f 44/44/44 48/48/48 47/47/47
f 46/46/46 47/47/47 49/49/49
f 52/52/52 51/51/51 50/50/50
f 52/52/52 53/53/53 51/51/51
f 54/54/54 53/53/53 52/52/52
f 53/53/53 54/54/54 55/55/55
f 56/56/56 55/55/55 54/54/54
f 55/55/55 56/56/56 57/57/57
f 57/57/57 58/58/58 55/55/55
f 57/57/57 59/59/59 58/58/58
f 60/60/60 58/58/58 59/59/59
f 60/60/60 59/59/59 61/61/61
f 62/62/62 61/61/61 59/59/59
f 63/63/63 61/61/61 62/62/62
f 63/63/63 62/62/62 64/64/64
f 64/64/64 65/65/65 63/63/63
f 66/66/66 65/65/65 64/64/64
f 66/66/66 50/50/50 65/65/65
