mtllib SM_Coin01_LOD3.mtl
g SM_Coin01_LOD3
#Vertices 20
#Indices 42
#Section 0 Offset 0 NumIndices 42 MaterialIndex 0 MI_BarrelsandCoins
v 0.055041 -0.001513 -0.010843
v 0.009837 0.017918 -0.054135
v 0.012450 -0.002499 -0.057468
v -0.048843 0.016974 -0.024777
v -0.047089 0.002031 -0.027164
v -0.035308 -0.000840 0.044338
v -0.031188 0.018628 0.048081
v 0.026658 0.017693 0.045290
v 0.032946 -0.000118 0.043500
v 0.055041 -0.001513 -0.010843
v 0.055041 -0.001513 -0.010843
v -0.035308 -0.000840 0.044338
v 0.032946 -0.000118 0.043500
v -0.047089 0.002031 -0.027164
v 0.012450 -0.002499 -0.057468
v 0.026658 0.017693 0.045290
v -0.031188 0.018628 0.048081
v -0.048843 0.016974 -0.024777
v 0.009837 0.017918 -0.054135
v 0.055041 -0.001513 -0.010843
vt 0.363281 0.972916
vt 0.418701 0.959625
vt 0.418213 0.973221
vt 0.480225 0.961243
vt 0.478027 0.971313
vt 0.545410 0.971848
vt 0.548340 0.959167
vt 0.601562 0.960327
vt 0.607910 0.972336
vt 0.661133 0.972397
vt 0.553223 0.814819
vt 0.598633 0.740723
vt 0.597656 0.797241
vt 0.540039 0.731689
vt 0.514160 0.779785
vt 0.499268 0.625732
vt 0.501465 0.673584
vt 0.441895 0.687256
vt 0.417725 0.639160
vt 0.452881 0.602783
vt1 0.819824 0.012207
vt1 0.863770 0.195312
vt1 0.818848 0.193359
vt1 0.858398 0.398438
vt1 0.825195 0.391602
vt1 0.823242 0.614746
vt1 0.865234 0.624268
vt1 0.861328 0.800171
vt1 0.821777 0.822388
vt1 0.821289 0.998658
vt1 0.568848 0.637939
vt1 0.766113 0.317383
vt1 0.761719 0.561768
vt1 0.511230 0.277832
vt1 0.398926 0.486816
vt1 0.717285 0.980499
vt1 0.509766 0.991463
vt1 0.450928 0.731934
vt1 0.658691 0.627686
vt1 0.816406 0.779663
vn 0.866142 -0.039370 -0.496063
vn 0.204724 -0.125984 -0.968504
vn 0.259843 -0.125984 -0.960630
vn -0.881890 -0.039370 -0.472441
vn -0.874016 -0.047244 -0.480315
vn -0.637795 -0.078740 0.763779
vn -0.566929 -0.094488 0.818897
vn 0.511811 -0.110236 0.850394
vn 0.661417 -0.086614 0.748031
vn 0.992126 0.000000 0.133858
vn -0.464567 -0.881890 0.094488
vn 0.330709 -0.834646 -0.433071
vn -0.338583 -0.850394 -0.401575
vn 0.433071 -0.874016 0.220473
vn -0.125984 -0.732283 0.669291
vn -0.236220 0.850394 -0.464567
vn 0.370079 0.763779 -0.527559
vn 0.472441 0.834646 0.275590
vn -0.102362 0.818898 0.566929
vn -0.590551 0.795275 0.133858
tan 0.039370 0.877860 -0.000930 1.000000
tan 0.000992 0.970116 -0.125984 1.000000
tan 0.000992 0.962676 -0.125984 1.000000
tan -0.039060 0.938186 -0.005270 1.000000
tan -0.046872 0.938992 -0.007068 1.000000
tan -0.037200 0.974890 0.069440 1.000000
tan -0.024552 0.940418 0.091512 1.000000
tan 0.017360 0.917602 0.108500 1.000000
tan 0.048422 0.988220 0.071610 1.000000
tan 0.000000 0.992126 -0.000000 1.000000
tan -0.881890 0.464567 -0.000000 1.000000
tan -0.841962 -0.393701 0.115816 1.000000
tan -0.833840 0.402815 -0.149978 1.000000
tan -0.872280 -0.450431 -0.072230 1.000000
tan -0.947176 0.186868 0.026164 1.000000
tan 0.854052 0.258168 0.038316 1.000000
tan 0.768802 -0.491351 -0.172050 1.000000
tan 0.830244 -0.496931 0.081716 1.000000
tan 0.815426 0.228594 -0.182962 1.000000
tan 0.796330 0.592659 -0.007874 1.000000
f 3/3/3 2/2/2 1/1/1
f 2/2/2 3/3/3 4/4/4
f 5/5/5 4/4/4 3/3/3
f 5/5/5 6/6/6 4/4/4
f 6/6/6 7/7/7 4/4/4
f 7/7/7 6/6/6 8/8/8
f 9/9/9 8/8/8 6/6/6
f 8/8/8 9/9/9 10/10/10
f 13/13/13 12/12/12 11/11/11
f 12/12/12 14/14/14 11/11/11
f 14/14/14 15/15/15 11/11/11
f 18/18/18 17/17/17 16/16/16
f 19/19/19 18/18/18 16/16/16
f 20/20/20 19/19/19 16/16/16
