mtllib SM_Coin02_LOD4.mtl
g SM_Coin02_LOD4
#Vertices 68
#Indices 102
#Section 0 Offset 0 NumIndices 102 MaterialIndex 0 MI_BarrelsandCoins
v -0.020516 0.029833 -0.054221
v -0.035409 -0.003725 0.060129
v -0.047090 0.002031 -0.027163
v -0.011845 0.039100 -0.022617
v -0.088261 0.030068 -0.068977
v -0.061716 0.013333 -0.070522
v -0.041639 0.023766 -0.125519
v -0.011152 0.002960 -0.127472
v 0.032371 0.031630 -0.105704
v -0.062196 0.050273 -0.059328
v 0.003025 0.058143 -0.009147
v -0.068400 0.026647 -0.074812
v 0.032371 0.031630 -0.105704
v 0.040769 0.020719 -0.075963
v -0.011152 0.002960 -0.127472
v -0.041639 0.023766 -0.125519
v -0.068400 0.026647 -0.074812
v -0.062196 0.050273 -0.059328
v 0.038344 0.019544 0.045187
v -0.035409 -0.003725 0.060129
v -0.020516 0.029833 -0.054221
v 0.055041 -0.001513 -0.010841
v -0.058742 0.033744 0.039118
v -0.129365 -0.001751 -0.002960
v -0.088261 0.030068 -0.068977
v -0.011845 0.039100 -0.022617
v -0.058742 0.033744 0.039118
v -0.011845 0.039100 -0.022617
v -0.060080 0.010389 0.038309
v -0.129365 -0.001751 -0.002960
v 0.019070 0.018532 0.039521
v 0.096814 0.024590 0.038465
v 0.107940 -0.004316 -0.040867
v 0.011591 0.027759 -0.044568
v 0.096814 0.024590 0.038465
v 0.041053 0.043662 -0.067584
v 0.107940 -0.004316 -0.040867
v 0.019070 0.018532 0.039521
v 0.041053 0.043662 -0.067584
v 0.011591 0.027759 -0.044568
v 0.107940 -0.004316 -0.040867
v 0.019070 0.018532 0.039521
v 0.048788 0.029835 0.022092
v -0.071678 -0.000302 0.073573
v 0.018101 0.027427 0.111124
v -0.048965 0.067721 0.014564
v 0.018101 0.027427 0.111124
v -0.048965 0.067721 0.014564
v 0.048788 0.029835 0.022092
v -0.071678 -0.000302 0.073573
v -0.068400 0.026647 -0.074812
v 0.003025 0.058143 -0.009147
v 0.040769 0.020719 -0.075963
v -0.011152 0.002960 -0.127472
v -0.062196 0.050273 -0.059328
v -0.041639 0.023766 -0.125519
v 0.032371 0.031630 -0.105704
v 0.003025 0.058143 -0.009147
v -0.060080 0.010389 0.038309
v -0.011845 0.039100 -0.022617
v -0.061716 0.013333 -0.070522
v -0.129365 -0.001751 -0.002960
v -0.088261 0.030068 -0.068977
v 0.055041 -0.001513 -0.010841
v -0.035409 -0.003725 0.060129
v 0.038344 0.019544 0.045187
v -0.047090 0.002031 -0.027163
v -0.020516 0.029833 -0.054221
vt 0.450684 0.954224
vt 0.553711 0.972855
vt 0.478027 0.971313
vt 0.357666 0.961456
vt 0.432373 0.959106
vt 0.421143 0.969742
vt 0.291260 0.836060
vt 0.263672 0.854614
vt 0.221436 0.833252
vt 0.373535 0.959076
vt 0.431885 0.965240
vt 0.358643 0.971664
vt 0.519531 0.960297
vt 0.501465 0.971436
vt 0.572754 0.972183
vt 0.602539 0.961395
vt 0.648438 0.973328
vt 0.668457 0.959564
vt 0.499268 0.616943
vt 0.511230 0.677490
vt 0.417969 0.663574
vt 0.452881 0.602783
vt 0.506348 0.635986
vt 0.471680 0.698486
vt 0.418213 0.660400
vt 0.454834 0.594238
vt 0.588867 0.958832
vt 0.659180 0.963074
vt 0.583984 0.969589
vt 0.508789 0.972031
vt 0.605469 0.735596
vt 0.604980 0.795532
vt 0.541504 0.811401
vt 0.537109 0.728027
vt 0.505371 0.621582
vt 0.418701 0.668701
vt 0.440430 0.604492
vt 0.506836 0.681396
vt 0.452637 0.955292
vt 0.477051 0.973129
vt 0.377686 0.979218
vt 0.548340 0.972580
vt 0.545410 0.822388
vt 0.577148 0.718018
vt 0.610352 0.786865
vt 0.513672 0.746338
vt 0.510254 0.631104
vt 0.417236 0.667480
vt 0.445068 0.594482
vt 0.478271 0.701416
vt 0.562988 0.816040
vt 0.500488 0.761719
vt 0.560059 0.726807
vt 0.607422 0.766479
vt 0.444092 0.604736
vt 0.501465 0.624512
vt 0.480713 0.684570
vt 0.400146 0.655029
vt 0.605469 0.777344
vt 0.555664 0.820190
vt 0.516602 0.776001
vt 0.572266 0.719971
vt 0.514648 0.754395
vt 0.553223 0.814819
vt 0.610840 0.739990
vt 0.599609 0.801880
vt 0.540039 0.731689
vt 0.518555 0.751953
vt1 0.169434 0.076172
vt1 0.357666 0.110840
vt1 0.219482 0.107910
vt1 -0.000536 0.122070
vt1 0.136108 0.117676
vt1 0.115540 0.137207
vt1 0.225098 0.961914
vt1 0.195435 0.918213
vt1 0.229370 0.851074
vt1 0.028564 0.149902
vt1 0.135010 0.161133
vt1 0.001237 0.173340
vt1 0.295410 0.152344
vt1 0.262695 0.172852
vt1 0.393066 0.174316
vt1 0.447510 0.154297
vt1 0.531250 0.176270
vt1 0.567383 0.150879
vt1 0.640625 0.475586
vt1 0.528809 0.453125
vt1 0.554199 0.625244
vt1 0.666504 0.560791
vt1 0.940918 0.700928
vt1 0.876953 0.816162
vt1 0.778320 0.746094
vt1 0.846191 0.624268
vt1 0.421875 0.117188
vt1 0.550781 0.125000
vt1 0.413330 0.137207
vt1 0.276367 0.141602
vt1 0.696289 0.304688
vt1 0.695312 0.415527
vt1 0.579102 0.444824
vt1 0.570801 0.291016
vt1 0.438477 0.463867
vt1 0.351807 0.623779
vt1 0.469727 0.583496
vt1 0.328369 0.461426
vt1 0.173096 0.045898
vt1 0.217651 0.079102
vt1 0.036255 0.090332
vt1 0.347900 0.078125
vt1 0.408447 0.464844
vt1 0.467041 0.272461
vt1 0.528320 0.399414
vt1 0.350586 0.324707
vt1 0.808105 0.455078
vt1 0.740723 0.626465
vt1 0.875488 0.574951
vt1 0.678711 0.513916
vt1 0.256104 0.453613
vt1 0.371338 0.353027
vt1 0.261230 0.288574
vt1 0.173950 0.361816
vt1 0.874512 0.321289
vt1 0.980469 0.357422
vt1 0.941895 0.467773
vt1 0.793457 0.414062
vt1 0.164795 0.301270
vt1 0.072937 0.380371
vt1 0.000750 0.298828
vt1 0.102966 0.195801
vt1 -0.003103 0.259277
vt1 0.773926 0.337891
vt1 0.667969 0.200195
vt1 0.688477 0.314453
vt1 0.798340 0.185059
vt1 0.837891 0.222168
vn -0.559055 -0.070866 -0.826772
vn -0.551181 -0.078740 0.834646
vn -0.874016 -0.047244 -0.480315
vn 0.889764 0.149606 -0.433071
vn 0.228346 -0.086614 -0.968504
vn 0.204724 -0.094488 -0.976378
vn -0.212598 0.732283 -0.645669
vn 0.007874 0.716535 -0.692913
vn 0.377953 0.708661 -0.590551
vn -0.795276 0.188976 0.582677
vn 0.165354 0.212599 0.960630
vn -0.897638 0.165354 0.417323
vn 0.921260 -0.196850 -0.330709
vn 1.000000 -0.062992 0.000000
vn -0.007874 -0.464567 -0.889764
vn -0.582677 -0.354331 -0.732283
vn -0.984252 -0.031496 -0.165354
vn -1.000000 0.039370 -0.031496
vn -0.338583 0.826771 -0.448819
vn 0.393701 0.685039 -0.614173
vn 0.188976 0.818898 0.543307
vn -0.590551 0.795275 0.133858
vn -0.236220 0.803149 -0.543307
vn 0.425197 0.897638 -0.086614
vn 0.031496 0.858268 0.511811
vn -0.944882 0.299213 0.110236
vn 0.283465 -0.070866 0.960630
vn 0.968504 0.188976 0.173228
vn 0.188976 -0.086614 0.976378
vn -0.960630 -0.204724 0.188976
vn 0.118110 -0.897638 -0.433071
vn -0.551181 -0.661417 -0.511811
vn -0.677165 -0.700787 0.220472
vn 0.291339 -0.897638 0.330709
vn -0.062992 0.866142 -0.488189
vn 0.480315 0.685039 0.543307
vn -0.314961 0.913386 0.244094
vn 0.574803 0.629921 -0.527559
vn -0.472441 0.031496 -0.881890
vn -0.842520 0.204724 -0.496063
vn 0.724409 -0.283465 -0.622047
vn -0.653543 0.125984 0.748031
vn -0.488189 -0.874016 -0.055118
vn 0.519685 -0.685039 -0.503937
vn -0.259843 -0.598425 -0.755905
vn 0.322835 -0.929134 0.173228
vn -0.251969 0.937008 -0.236221
vn 0.307087 0.574803 0.755905
vn -0.614173 0.582677 0.527559
vn 0.590551 0.803149 -0.007874
vn 0.456693 -0.842520 0.291339
vn -0.125984 -0.937008 -0.338583
vn -0.527559 -0.795275 0.299213
vn -0.039370 -0.614173 0.787401
vn 0.503937 0.685039 -0.519685
vn 0.393701 0.905512 0.133858
vn -0.440945 0.897638 -0.000000
vn -0.094488 0.425197 -0.897638
vn 0.102362 -0.850394 -0.519685
vn -0.385827 -0.921260 0.062992
vn 0.102362 -0.858268 0.503937
vn 0.669291 -0.732283 -0.110236
vn 0.425197 -0.614173 0.661417
vn -0.464567 -0.881890 0.094488
vn 0.314961 -0.787401 -0.535433
vn -0.385827 -0.826772 -0.409449
vn 0.433071 -0.874016 0.220473
vn 0.188976 -0.787401 0.590551
tan -0.037386 0.998016 -0.060264 1.000000
tan -0.013640 0.916982 0.077500 1.000000
tan -0.046872 0.938992 -0.007068 1.000000
tan -0.275529 0.851138 -0.272057 1.000000
tan -0.420795 0.865770 -0.176638 1.000000
tan -0.215264 0.953314 -0.137392 1.000000
tan -0.003720 0.649017 0.737305 1.000000
tan -0.017112 0.693161 0.716597 1.000000
tan -0.053010 0.621613 0.712009 1.000000
tan -0.397049 0.545477 -0.718829 1.000000
tan 0.226920 0.930374 -0.244963 1.000000
tan -0.166098 0.650257 -0.614917 1.000000
tan 0.010602 0.823423 -0.460599 1.000000
tan 0.054064 0.858268 -0.511811 1.000000
tan 0.017670 0.889702 -0.464691 1.000000
tan 0.199950 0.809659 -0.550871 1.000000
tan 0.034782 0.905450 -0.379503 1.000000
tan 0.047368 0.944882 -0.322835 1.000000
tan 0.826772 0.363321 0.045570 1.000000
tan 0.648769 -0.619381 -0.274970 1.000000
tan 0.827454 -0.176142 -0.022320 1.000000
tan 0.796330 0.592659 -0.007874 1.000000
tan 0.812078 0.361399 0.181164 1.000000
tan 0.897638 -0.432699 -0.077748 1.000000
tan 0.852812 0.061690 -0.155930 1.000000
tan 0.308761 0.944882 0.081840 1.000000
tan -0.392213 0.881890 0.180792 1.000000
tan -0.191704 0.968504 0.015252 1.000000
tan -0.445223 0.870234 0.163370 1.000000
tan -0.219604 0.960630 -0.075640 1.000000
tan -0.869366 -0.012090 -0.212040 1.000000
tan -0.672825 0.654721 -0.121520 1.000000
tan -0.702523 0.687581 0.027776 1.000000
tan -0.902846 -0.286131 0.018724 1.000000
tan 0.818402 -0.101928 -0.286441 1.000000
tan 0.690247 -0.588753 0.132122 1.000000
tan 0.913386 0.295741 0.071920 1.000000
tan 0.644925 -0.644677 -0.067084 1.000000
tan 0.670097 0.621489 -0.336785 1.000000
tan 0.449563 0.750883 -0.453655 1.000000
tan 0.483043 0.782193 0.206088 1.000000
tan 0.624713 0.591667 0.446153 1.000000
tan -0.873582 0.489057 -0.017608 1.000000
tan -0.702523 -0.661293 0.174468 1.000000
tan 0.186496 0.721681 -0.635439 1.000000
tan -0.929134 -0.331019 -0.043896 1.000000
tan 0.929630 0.277885 0.110670 1.000000
tan 0.223324 0.721309 -0.639221 1.000000
tan 0.648273 0.641887 0.045756 1.000000
tan 0.797012 -0.585095 0.096162 1.000000
tan 0.847108 0.449811 -0.027094 1.000000
tan 0.937008 -0.107322 -0.051646 1.000000
tan 0.802344 -0.525203 0.018724 1.000000
tan 0.349433 -0.729121 -0.551243 1.000000
tan -0.745303 0.594457 0.060884 1.000000
tan -0.905512 0.394755 -0.007130 1.000000
tan -0.897638 -0.440945 0.000248 1.000000
tan -0.848534 0.284209 0.223944 1.000000
tan -0.856346 -0.225990 0.201128 1.000000
tan -0.921260 0.388803 0.043524 1.000000
tan -0.828446 -0.237212 -0.235724 1.000000
tan -0.732283 -0.671027 0.011532 1.000000
tan -0.800918 -0.588133 -0.031248 1.000000
tan -0.881890 0.464567 -0.000000 1.000000
tan -0.785666 -0.421353 0.157480 1.000000
tan -0.804018 0.466985 -0.185318 1.000000
tan -0.872280 -0.450431 -0.072230 1.000000
tan -0.885052 -0.142662 0.093000 1.000000
f 3/3/3 2/2/2 1/1/1
f 6/6/6 5/5/5 4/4/4
f 9/9/9 8/8/8 7/7/7
f 12/12/12 11/11/11 10/10/10
f 11/11/11 14/14/14 13/13/13
f 13/13/13 14/14/14 15/15/15
f 17/17/17 16/16/16 15/15/15
f 16/16/16 17/17/17 18/18/18
f 21/21/21 20/20/20 19/19/19
f 22/22/22 21/21/21 19/19/19
f 25/25/25 24/24/24 23/23/23
f 23/23/23 26/26/26 25/25/25
f 29/29/29 28/28/28 27/27/27
f 29/29/29 27/27/27 30/30/30
f 33/33/33 32/32/32 31/31/31
f 34/34/34 33/33/33 31/31/31
f 37/37/37 36/36/36 35/35/35
f 36/36/36 38/38/38 35/35/35
f 41/41/41 40/40/40 39/39/39
f 39/39/39 40/40/40 42/42/42
f 45/45/45 44/44/44 43/43/43
f 44/44/44 46/46/46 43/43/43
f 49/49/49 48/48/48 47/47/47
f 48/48/48 50/50/50 47/47/47
f 53/53/53 52/52/52 51/51/51
f 54/54/54 53/53/53 51/51/51
f 57/57/57 56/56/56 55/55/55
f 58/58/58 57/57/57 55/55/55
f 61/61/61 60/60/60 59/59/59
f 62/62/62 61/61/61 59/59/59
f 62/62/62 63/63/63 61/61/61
f 66/66/66 65/65/65 64/64/64
f 65/65/65 67/67/67 64/64/64
f 67/67/67 68/68/68 64/64/64
