mtllib SM_Grass_01A_LOD3.mtl
g SM_Grass_01A_LOD3
#Vertices 67
#Indices 165
#Section 0 Offset 0 NumIndices 165 MaterialIndex 0 MI_GrassMesh02
v -0.007505 0.238521 -0.110072
v -0.053084 -0.011681 -0.082962
v 0.033153 0.241868 -0.131034
v -0.059507 0.112934 -0.090452
v -0.115310 -0.024300 0.030027
v -0.099572 0.153760 0.003193
v -0.055818 0.249829 -0.059347
v -0.117457 0.136391 0.163161
v -0.091303 0.220915 0.058841
v -0.094976 0.319827 0.013206
v -0.110471 0.294976 0.087440
v 0.133366 0.263004 -0.009797
v 0.117779 0.097373 -0.027169
v 0.173617 0.266695 0.020601
v 0.089222 0.124779 -0.052263
v 0.057801 -0.022179 -0.043831
v 0.153328 0.086511 0.003613
v -0.057191 -0.026889 -0.049904
v -0.023140 0.169600 -0.047210
v 0.059848 0.275487 -0.033588
v -0.190708 0.150385 0.011398
v -0.074529 0.243591 -0.012413
v -0.030941 0.352694 -0.037853
v -0.112106 0.325253 -0.017805
v -0.140890 0.263004 0.012123
v -0.125871 0.097373 0.029989
v -0.180140 0.266695 -0.019556
v -0.098138 0.124779 0.055991
v -0.066461 -0.022179 0.048575
v -0.160409 0.086511 -0.001923
v 0.048276 -0.026889 0.058351
v 0.014330 0.169600 0.054561
v -0.068177 0.275487 0.038272
v 0.183699 0.150385 0.001385
v 0.066813 0.243591 0.021439
v 0.022427 0.352694 0.045461
v 0.104197 0.325253 0.028039
v 0.009228 0.110250 0.104621
v 0.007340 -0.011439 0.095160
v -0.075849 0.237455 0.093547
v 0.114401 -0.023674 0.028525
v 0.087739 0.150159 0.043813
v 0.020887 0.243816 0.076372
v 0.179208 0.133137 -0.083974
v 0.107332 0.215604 -0.007489
v 0.088771 0.312131 0.033156
v 0.137270 0.287885 -0.022746
v -0.109023 0.111660 -0.036436
v -0.099286 -0.011587 -0.037284
v -0.088423 0.240487 -0.120850
v -0.044095 -0.023976 0.077888
v -0.056525 0.152084 0.049348
v -0.081877 0.246928 -0.021561
v 0.061957 0.134838 0.155620
v -0.007056 0.218357 0.074772
v -0.045910 0.316120 0.051575
v 0.004978 0.291560 0.106603
v 0.131890 0.108286 0.039992
v 0.122575 -0.011234 0.041697
v 0.119669 0.233228 0.123367
v 0.058837 -0.023252 -0.064506
v 0.073425 0.147477 -0.038084
v 0.104339 0.239478 0.028093
v -0.050613 0.130767 -0.129941
v 0.023357 0.211768 -0.058137
v 0.062980 0.306570 -0.039259
v 0.008850 0.282762 -0.087780
vt 0.861328 0.781494
vt 0.714844 0.041016
vt 1.000000 0.791870
vt 0.714844 0.410156
vt 0.344238 0.000488
vt 0.441650 0.529541
vt 0.656250 0.816162
vt -0.013008 0.477539
vt 0.307129 0.721436
vt 0.416992 1.025589
vt 0.202148 0.946777
vt 0.861328 0.781494
vt 0.808105 0.335938
vt 1.000000 0.791870
vt 0.715332 0.411133
vt 0.646973 0.013672
vt 0.928223 0.306641
vt 0.344971 0.000000
vt 0.441650 0.529785
vt 0.656250 0.816162
vt -0.013054 0.477539
vt 0.307129 0.721436
vt 0.416992 1.025696
vt 0.202148 0.946777
vt 0.861328 0.781494
vt 0.808105 0.335938
vt 1.000000 0.791870
vt 0.715332 0.411133
vt 0.646973 0.013672
vt 0.928223 0.306641
vt 0.344971 0.000000
vt 0.441650 0.529785
vt 0.656250 0.816162
vt -0.013054 0.477539
vt 0.307129 0.721436
vt 0.416992 1.025696
vt 0.202148 0.946777
vt 0.714844 0.410645
vt 0.714844 0.041016
vt 0.954102 0.796021
vt 0.343506 0.000488
vt 0.441895 0.529785
vt 0.656250 0.816162
vt -0.012970 0.477539
vt 0.307129 0.721436
vt 0.416992 1.025558
vt 0.202148 0.946777
vt 0.714844 0.410645
vt 0.714844 0.041016
vt 0.954102 0.796021
vt 0.343506 0.000488
vt 0.441895 0.530029
vt 0.656250 0.816162
vt -0.012978 0.477539
vt 0.307129 0.721436
vt 0.416992 1.025574
vt 0.202148 0.946777
vt 0.714844 0.410645
vt 0.714844 0.041016
vt 0.954102 0.796021
vt 0.343506 0.000488
vt 0.441895 0.529785
vt 0.656250 0.816162
vt -0.012970 0.477539
vt 0.307129 0.721436
vt 0.416992 1.025543
vt 0.202148 0.946777
vt1 0.084167 0.538086
vt1 0.342041 0.484375
vt1 0.080566 0.588867
vt1 0.213501 0.484863
vt1 0.356201 0.348633
vt1 0.171997 0.384277
vt1 0.072083 0.463379
vt1 0.190186 0.217773
vt1 0.105164 0.334961
vt1 -0.000852 0.375488
vt1 0.026596 0.296875
vt1 0.742676 0.691895
vt1 0.721191 0.863037
vt1 0.798828 0.687988
vt1 0.684082 0.834229
vt1 0.656250 0.986702
vt1 0.770020 0.874390
vt1 0.534180 0.991943
vt1 0.573242 0.788574
vt1 0.660156 0.678467
vt1 0.389648 0.808716
vt1 0.519043 0.715088
vt1 0.563477 0.598145
vt1 0.476562 0.628418
vt1 0.355957 0.908020
vt1 0.334473 0.736816
vt1 0.411865 0.911987
vt1 0.296875 0.765625
vt1 0.269287 0.613281
vt1 0.383057 0.725586
vt1 0.147339 0.607910
vt1 0.186401 0.811279
vt1 0.273193 0.921326
vt1 0.002789 0.791138
vt1 0.132080 0.884888
vt1 0.176514 1.001806
vt1 0.089661 0.971497
vt1 0.722656 0.517334
vt1 0.722656 0.391602
vt1 0.637207 0.648438
vt1 0.855469 0.377930
vt1 0.820312 0.558105
vt1 0.743652 0.655273
vt1 0.982910 0.540039
vt1 0.868164 0.623047
vt1 0.829102 0.726562
vt1 0.905762 0.699707
vt1 0.517578 0.373047
vt1 0.644531 0.373047
vt1 0.384521 0.459473
vt1 0.658691 0.238281
vt1 0.476318 0.273926
vt1 0.377686 0.351562
vt1 0.494385 0.109375
vt1 0.410400 0.225098
vt1 0.305664 0.265137
vt1 0.332764 0.187012
vt1 0.817871 0.263184
vt1 0.940918 0.263184
vt1 0.688965 0.347168
vt1 0.954590 0.132812
vt1 0.777832 0.166992
vt1 0.682129 0.242676
vt1 0.795410 0.007324
vt1 0.713867 0.120117
vt1 0.612305 0.158691
vt1 0.638672 0.083008
vn -0.472441 0.031496 -0.881890
vn -0.669291 -0.078740 -0.732283
vn -0.456693 0.023622 -0.889764
vn -0.692913 -0.007874 -0.724409
vn -0.976378 0.031496 -0.220472
vn -0.984252 0.110236 -0.125984
vn -0.858268 0.173228 -0.488189
vn -0.984252 0.078740 -0.133858
vn -0.992126 0.007874 -0.125984
vn -0.992126 -0.086614 -0.055118
vn -0.944882 -0.125984 -0.314961
vn 0.590551 0.031496 -0.811023
vn 0.535433 -0.015748 -0.842520
vn 0.598425 0.023622 -0.795275
vn 0.354331 -0.000000 -0.937008
vn 0.220472 -0.086614 -0.968504
vn 0.637795 -0.102362 -0.763779
vn -0.228346 0.015748 -0.976378
vn -0.314961 0.110236 -0.944882
vn 0.070866 0.173228 -0.984252
vn -0.307087 0.078740 -0.944882
vn -0.314961 0.007874 -0.952756
vn -0.377953 -0.086614 -0.921260
vn -0.125984 -0.125984 -0.984252
vn -0.614173 0.031496 0.787401
vn -0.559055 -0.015748 0.826772
vn -0.629921 0.023622 0.779527
vn -0.385827 0.000000 0.921260
vn -0.251969 -0.086614 0.960630
vn -0.661417 -0.102362 0.748031
vn 0.196850 0.015748 0.976378
vn 0.283465 0.110236 0.952756
vn -0.102362 0.173228 0.976378
vn 0.275591 0.078740 0.960630
vn 0.283465 0.007874 0.960630
vn 0.346457 -0.086614 0.937008
vn 0.094488 -0.125984 0.984252
vn 0.251969 -0.007874 0.968504
vn 0.228346 -0.078740 0.968504
vn -0.062992 0.023622 1.000000
vn 0.740157 0.023622 0.669291
vn 0.803150 0.118110 0.582677
vn 0.503937 0.173228 0.842520
vn 0.795276 0.078740 0.598425
vn 0.803150 0.007874 0.590551
vn 0.842520 -0.086614 0.535433
vn 0.669291 -0.125984 0.732283
vn -0.992126 -0.007874 0.141732
vn -0.992126 -0.078740 0.118110
vn -0.984252 0.023622 -0.173228
vn -0.748031 0.023622 0.669291
vn -0.669291 0.118110 0.732283
vn -0.897638 0.173228 0.409449
vn -0.685039 0.078740 0.724409
vn -0.677165 0.007874 0.732283
vn -0.622047 -0.086614 0.779527
vn -0.803150 -0.125984 0.582677
vn 0.968504 -0.007874 -0.236220
vn 0.976378 -0.078740 -0.212598
vn 1.000000 0.023622 0.078740
vn 0.677165 0.023622 -0.732283
vn 0.598425 0.118110 -0.795275
vn 0.850394 0.173228 -0.496063
vn 0.606299 0.078740 -0.787401
vn 0.606299 0.007874 -0.795275
vn 0.551181 -0.086614 -0.834646
vn 0.740157 -0.125984 -0.661417
tan -0.004712 -0.945626 -0.031248 1.000000
tan 0.045074 -0.991444 0.065410 1.000000
tan -0.010354 -0.947486 -0.019840 1.000000
tan 0.001054 -0.965466 0.009486 1.000000
tan -0.031496 -0.976378 0.000000 1.000000
tan -0.111228 -0.984252 0.007750 1.000000
tan -0.188604 -0.889020 0.016120 1.000000
tan -0.078740 -0.984252 0.000000 1.000000
tan -0.009858 -0.992126 0.015624 1.000000
tan 0.085312 -0.992126 0.023436 1.000000
tan 0.135904 -0.957282 -0.024800 1.000000
tan 0.005022 -0.967450 -0.033914 1.000000
tan -0.003844 -0.946680 0.015252 1.000000
tan 0.003038 -0.968256 -0.026474 1.000000
tan 0.000000 -0.939798 0.000000 1.000000
tan 0.000000 -0.968504 0.086614 1.000000
tan -0.050778 -0.977928 0.088660 1.000000
tan 0.000000 -0.976378 -0.015748 1.000000
tan -0.007440 -0.944882 -0.107756 1.000000
tan -0.015500 -0.984252 -0.174344 1.000000
tan -0.000620 -0.947300 -0.078740 1.000000
tan -0.022816 -0.965156 -0.000434 1.000000
tan -0.034906 -0.927212 0.101494 1.000000
tan 0.024242 -0.985244 0.123008 1.000000
tan -0.007440 -0.978982 0.033356 1.000000
tan 0.004712 -0.954988 -0.015004 1.000000
tan -0.004836 -0.986236 0.025978 1.000000
tan 0.000000 -0.924298 0.000000 1.000000
tan 0.000000 -0.960630 -0.086614 1.000000
tan 0.058032 -0.993428 -0.084630 1.000000
tan 0.000000 -0.976378 0.015748 1.000000
tan 0.007502 -0.952756 0.108004 1.000000
tan 0.015376 -0.976378 0.174840 1.000000
tan 0.000000 -0.960630 0.078740 1.000000
tan 0.022878 -0.967326 0.001178 1.000000
tan 0.036208 -0.939736 -0.100254 1.000000
tan -0.023250 -0.984252 -0.123752 1.000000
tan 0.000124 -0.964536 -0.007874 1.000000
tan 0.000000 -0.968504 -0.078740 1.000000
tan 0.000000 -1.000000 0.023622 1.000000
tan 0.020088 -0.982516 0.012462 1.000000
tan 0.130944 -0.874822 -0.003162 1.000000
tan 0.040176 -0.882200 0.157356 1.000000
tan 0.080972 -0.911588 0.012338 1.000000
tan 0.025916 -0.969434 -0.022320 1.000000
tan -0.056420 -0.903342 -0.057350 1.000000
tan -0.111972 -0.987662 -0.067580 1.000000
tan 0.007874 -0.991010 0.000062 1.000000
tan 0.078740 -0.992126 0.000000 1.000000
tan -0.024986 -0.984252 0.007750 1.000000
tan -0.015376 -0.975262 0.017236 1.000000
tan -0.026040 -0.956724 0.130510 1.000000
tan -0.163556 -0.904086 0.023932 1.000000
tan -0.039556 -0.986980 0.069874 1.000000
tan 0.018166 -0.997830 0.027528 1.000000
tan 0.090706 -0.941038 -0.032178 1.000000
tan 0.094116 -0.961870 -0.078244 1.000000
tan -0.007874 -0.964784 -0.000124 1.000000
tan -0.078740 -0.976378 0.000000 1.000000
tan 0.023622 -1.000000 0.000000 1.000000
tan 0.013764 -0.988468 -0.019158 1.000000
tan -0.005518 -0.881704 -0.135098 1.000000
tan 0.157604 -0.881642 -0.037696 1.000000
tan 0.015500 -0.923492 -0.080414 1.000000
tan -0.021824 -0.974642 -0.026288 1.000000
tan -0.065534 -0.903962 0.050530 1.000000
tan -0.071920 -0.986298 0.107384 1.000000
f 3/3/3 2/2/2 1/1/1
f 1/1/1 2/2/2 4/4/4
f 4/4/4 2/2/2 5/5/5
f 4/4/4 5/5/5 6/6/6
f 7/7/7 4/4/4 6/6/6
f 5/5/5 8/8/8 6/6/6
f 8/8/8 9/9/9 6/6/6
f 9/9/9 10/10/10 6/6/6
f 11/11/11 9/9/9 8/8/8
f 14/14/14 13/13/13 12/12/12
f 12/12/12 13/13/13 15/15/15
f 17/17/17 16/16/16 13/13/13
f 13/13/13 16/16/16 15/15/15
f 15/15/15 16/16/16 18/18/18
f 15/15/15 18/18/18 19/19/19
f 20/20/20 15/15/15 19/19/19
f 18/18/18 21/21/21 19/19/19
f 21/21/21 22/22/22 19/19/19
f 22/22/22 23/23/23 19/19/19
f 24/24/24 22/22/22 21/21/21
f 27/27/27 26/26/26 25/25/25
f 25/25/25 26/26/26 28/28/28
f 30/30/30 29/29/29 26/26/26
f 26/26/26 29/29/29 28/28/28
f 28/28/28 29/29/29 31/31/31
f 28/28/28 31/31/31 32/32/32
f 33/33/33 28/28/28 32/32/32
f 31/31/31 34/34/34 32/32/32
f 34/34/34 35/35/35 32/32/32
f 35/35/35 36/36/36 32/32/32
f 37/37/37 35/35/35 34/34/34
f 40/40/40 39/39/39 38/38/38
f 38/38/38 39/39/39 41/41/41
f 38/38/38 41/41/41 42/42/42
f 43/43/43 38/38/38 42/42/42
f 41/41/41 44/44/44 42/42/42
f 44/44/44 45/45/45 42/42/42
f 45/45/45 46/46/46 42/42/42
f 47/47/47 45/45/45 44/44/44
f 50/50/50 49/49/49 48/48/48
f 48/48/48 49/49/49 51/51/51
f 48/48/48 51/51/51 52/52/52
f 53/53/53 48/48/48 52/52/52
f 51/51/51 54/54/54 52/52/52
f 54/54/54 55/55/55 52/52/52
f 55/55/55 56/56/56 52/52/52
f 57/57/57 55/55/55 54/54/54
f 60/60/60 59/59/59 58/58/58
f 58/58/58 59/59/59 61/61/61
f 58/58/58 61/61/61 62/62/62
f 63/63/63 58/58/58 62/62/62
f 61/61/61 64/64/64 62/62/62
f 64/64/64 65/65/65 62/62/62
f 65/65/65 66/66/66 62/62/62
f 67/67/67 65/65/65 64/64/64
