mtllib SM_Shield02_LOD2.mtl
g SM_Shield02_LOD2
#Vertices 120
#Indices 366
#Section 0 Offset 0 NumIndices 366 MaterialIndex 0 MI_SwordsandShields
v 0.202540 0.041736 -0.040452
v 0.220656 0.054470 -0.039828
v 0.202814 0.065228 -0.045413
v 0.139921 -0.170336 -0.040452
v 0.127187 -0.152220 -0.039828
v 0.116429 -0.170062 -0.045413
v -0.008412 -0.262567 -0.040452
v 0.004322 -0.280683 -0.039828
v 0.015080 -0.262841 -0.045413
v -0.143057 -0.157914 -0.040452
v -0.130323 -0.176030 -0.039828
v -0.119565 -0.158188 -0.045413
v -0.215099 0.063326 -0.040452
v -0.213311 0.041255 -0.039828
v -0.194992 0.051177 -0.045413
v -0.222527 0.217454 -0.040452
v -0.200455 0.219242 -0.039828
v -0.210377 0.237562 -0.045413
v 0.226251 0.214194 -0.039629
v 0.222196 0.233111 -0.039483
v 0.205166 0.208250 -0.045616
v 0.202960 0.230305 -0.039639
v 0.013300 -0.057120 -0.015856
v -0.012958 -0.050578 -0.000009
v -0.013394 -0.057145 -0.015851
v 0.013120 -0.047997 0.001031
v -0.015922 0.112585 0.000013
v 0.016040 0.114918 -0.001100
v 0.016562 0.121659 -0.016204
v -0.016448 0.121623 -0.016219
v -0.013394 -0.057145 -0.015851
v -0.013114 -0.075124 0.004674
v -0.012705 -0.080617 -0.015856
v -0.012958 -0.050578 -0.000009
v -0.013835 -0.024250 0.013811
v -0.016208 0.115268 0.012184
v -0.015922 0.112585 0.000013
v -0.016638 0.141376 0.005837
v -0.016448 0.121623 -0.016219
v -0.016352 0.144278 -0.015856
v -0.016638 0.141376 0.005837
v -0.016352 0.144278 -0.015856
v 0.016084 0.144400 -0.015788
v 0.016518 0.133272 0.010319
v -0.016208 0.115268 0.012184
v 0.014032 -0.013998 0.014775
v -0.013835 -0.024250 0.013811
v 0.013059 -0.065993 0.007299
v -0.013114 -0.075124 0.004674
v 0.012012 -0.080806 -0.015756
v -0.012705 -0.080617 -0.015856
v 0.016562 0.121659 -0.016204
v 0.016040 0.114918 -0.001100
v 0.016084 0.144400 -0.015788
v 0.016518 0.133272 0.010319
v 0.013120 -0.047997 0.001031
v 0.014032 -0.013998 0.014775
v 0.013059 -0.065993 0.007299
v 0.012012 -0.080806 -0.015756
v 0.013300 -0.057120 -0.015856
v 0.254150 0.219450 0.001802
v 0.250966 0.057020 0.000884
v 0.220376 -0.083692 0.000884
v 0.156958 -0.202821 0.001029
v 0.000000 0.333174 0.000884
v 0.255525 0.270249 0.000884
v -0.254147 0.219377 0.001809
v -0.255525 0.270249 0.000884
v 0.000006 0.267955 -0.011227
v 0.016084 0.144400 -0.015788
v -0.016352 0.144278 -0.015856
v 0.016562 0.121659 -0.016204
v -0.016448 0.121623 -0.016219
v -0.220376 -0.083692 0.000884
v -0.250966 0.057020 0.000884
v -0.157052 -0.202738 0.000941
v -0.013394 -0.057145 -0.015851
v 0.013300 -0.057120 -0.015856
v -0.012705 -0.080617 -0.015856
v 0.012012 -0.080806 -0.015756
v -0.000075 -0.236936 -0.010037
v -0.070918 -0.288987 0.000884
v 0.070918 -0.288987 0.000884
v 0.000000 -0.333125 0.000884
v -0.026719 -0.294923 -0.043367
v -0.070918 -0.288987 0.000884
v 0.000000 -0.333125 0.000884
v 0.070918 -0.288987 0.000884
v -0.157052 -0.202738 0.000941
v 0.072388 -0.258288 -0.040497
v 0.156958 -0.202821 0.001029
v -0.192516 -0.122734 -0.040460
v -0.220376 -0.083692 0.000884
v 0.192365 -0.118954 -0.042041
v 0.220376 -0.083692 0.000884
v -0.240964 0.106587 -0.039279
v -0.250966 0.057020 0.000884
v -0.254147 0.219377 0.001809
v 0.240965 0.106589 -0.039278
v 0.250966 0.057020 0.000884
v 0.254150 0.219450 0.001802
v -0.238596 0.245214 -0.040497
v -0.255525 0.270249 0.000884
v 0.000000 0.333174 0.000884
v 0.238596 0.245214 -0.040497
v 0.255525 0.270249 0.000884
v 0.000000 0.302271 -0.040497
v -0.204705 0.213964 -0.040115
v 0.204203 0.214191 -0.040137
v 0.211395 0.130294 -0.038342
v -0.004194 0.267605 -0.039191
v 0.000641 0.261086 -0.054842
v -0.195992 0.146035 -0.040240
v -0.000002 0.130530 -0.079807
v 0.160110 -0.120409 -0.040471
v -0.186403 -0.047835 -0.038423
v 0.002961 -0.119873 -0.077648
v -0.090612 -0.202395 -0.040546
v 0.022389 -0.240784 -0.045614
v 0.011846 -0.255631 -0.039629
vt 0.504395 0.027344
vt 0.488037 0.022461
vt 0.498535 0.012695
vt 0.895020 0.166016
vt 0.911621 0.171387
vt 0.901367 0.180664
vt 0.567383 0.005371
vt 0.583984 0.010254
vt 0.573242 0.020020
vt 0.950195 0.214844
vt 0.966797 0.219727
vt 0.956055 0.229004
vt 0.321777 0.026367
vt 0.313477 0.011230
vt 0.327637 0.011719
vt 0.779297 0.002441
vt 0.787598 0.018066
vt 0.773438 0.017090
vt 0.040863 0.019043
vt 0.025604 0.019043
vt 0.039673 0.004395
vt 0.024628 0.003418
vt 0.988770 0.641113
vt 0.971191 0.653076
vt 0.970703 0.641113
vt 0.988281 0.654785
vt 0.969238 0.761719
vt 0.990234 0.763306
vt 0.990723 0.775513
vt 0.968750 0.775513
vt 0.867188 0.998129
vt 0.878906 0.984474
vt 0.882812 0.998133
vt 0.862793 0.987595
vt 0.845215 0.978394
vt 0.752441 0.979477
vt 0.753906 0.987579
vt 0.734863 0.983704
vt 0.748047 0.998376
vt 0.732910 0.998133
vt 0.068787 0.822388
vt 0.055908 0.822266
vt 0.056244 0.802002
vt 0.075806 0.801758
vt 0.088135 0.822632
vt 0.168823 0.802124
vt 0.175171 0.822266
vt 0.203369 0.802002
vt 0.210571 0.822388
vt 0.222290 0.802002
vt 0.222900 0.822266
vt 0.648438 0.958588
vt 0.652832 0.968628
vt 0.633301 0.958862
vt 0.640625 0.976227
vt 0.761230 0.970047
vt 0.738770 0.979187
vt 0.773438 0.974213
vt 0.783203 0.958893
vt 0.767578 0.958801
vt 0.068787 0.377441
vt 0.183716 0.383789
vt 0.278076 0.402344
vt 0.363037 0.439453
vt 0.001924 0.553955
vt 0.041229 0.383301
vt 0.074036 0.728271
vt 0.046295 0.723389
vt 0.038177 0.553467
vt 0.124023 0.541016
vt 0.124390 0.563477
vt 0.139648 0.540527
vt 0.140015 0.563232
vt 0.282471 0.697266
vt 0.188721 0.718750
vt 0.366211 0.657959
vt 0.264160 0.559326
vt 0.263916 0.540771
vt 0.280518 0.558594
vt 0.280273 0.541504
vt 0.390381 0.548096
vt 0.418213 0.595215
vt 0.416748 0.500244
vt 0.447021 0.547363
vt 0.435791 0.174805
vt 0.448730 0.135742
vt 0.475098 0.191895
vt 0.448486 0.248047
vt 0.388916 0.071289
vt 0.412354 0.240234
vt 0.388672 0.312500
vt 0.322510 0.062012
vt 0.305176 0.022949
vt 0.320068 0.321289
vt 0.304932 0.360352
vt 0.168335 0.029785
vt 0.203857 0.001953
vt 0.087708 0.005859
vt 0.168091 0.353516
vt 0.203613 0.381348
vt 0.087402 0.377441
vt 0.077271 0.039551
vt 0.050385 0.015625
vt 0.001939 0.191406
vt 0.077026 0.343750
vt 0.050140 0.367676
vt 0.040955 0.191406
vt 0.091431 0.053711
vt 0.091125 0.329102
vt 0.148926 0.338867
vt 0.056183 0.189453
vt 0.064209 0.192383
vt 0.138306 0.055176
vt 0.151855 0.191406
vt 0.323975 0.303711
vt 0.273682 0.061035
vt 0.321777 0.193848
vt 0.380615 0.127930
vt 0.406006 0.207031
vt 0.416748 0.199707
vt1 0.835938 0.906555
vt1 0.811523 0.899170
vt1 0.826660 0.885315
vt1 0.866211 0.939178
vt1 0.890625 0.946594
vt1 0.875488 0.960449
vt1 0.817871 0.939178
vt1 0.842285 0.946594
vt1 0.827148 0.960449
vt1 0.963379 0.923096
vt1 0.987305 0.930481
vt1 0.972168 0.944336
vt1 0.875977 0.910522
vt1 0.863770 0.888123
vt1 0.884766 0.889160
vt1 0.922852 0.919128
vt1 0.935059 0.941498
vt1 0.914062 0.940430
vt1 0.033264 0.989746
vt1 0.010918 0.989746
vt1 0.031525 0.968384
vt1 0.009483 0.967346
vt1 0.784668 0.940643
vt1 0.767090 0.915283
vt1 0.784668 0.914673
vt1 0.764648 0.940430
vt1 0.608398 0.912170
vt1 0.605957 0.943176
vt1 0.587891 0.943817
vt1 0.587891 0.911743
vt1 0.704102 0.991936
vt1 0.721191 0.971970
vt1 0.726562 0.991936
vt1 0.697266 0.976517
vt1 0.671875 0.963074
vt1 0.536133 0.964661
vt1 0.538574 0.976501
vt1 0.510742 0.970840
vt1 0.529785 0.992290
vt1 0.507812 0.991936
vt1 0.007778 0.274414
vt1 0.008064 0.254883
vt1 0.036652 0.255371
vt1 0.036896 0.284668
vt1 0.007561 0.303711
vt1 0.036438 0.426270
vt1 0.008110 0.436035
vt1 0.036621 0.478516
vt1 0.007782 0.489746
vt1 0.036499 0.507080
vt1 0.008064 0.508301
vt1 0.771973 0.961426
vt1 0.778320 0.976120
vt1 0.749512 0.961823
vt1 0.760254 0.987221
vt1 0.937012 0.978180
vt1 0.903809 0.991562
vt1 0.954590 0.984283
vt1 0.968750 0.961853
vt1 0.945801 0.961761
vt1 0.884277 0.017090
vt1 0.716309 0.026367
vt1 0.577637 0.053711
vt1 0.453613 0.107910
vt1 0.982422 0.275879
vt1 0.924805 0.025879
vt1 0.876953 0.531738
vt1 0.917480 0.524414
vt1 0.929199 0.275391
vt1 0.803711 0.256836
vt1 0.803223 0.290039
vt1 0.780762 0.256348
vt1 0.780273 0.289551
vt1 0.571289 0.486328
vt1 0.708984 0.517578
vt1 0.448730 0.428223
vt1 0.598145 0.283691
vt1 0.598633 0.256836
vt1 0.574219 0.282715
vt1 0.574219 0.257812
vt1 0.413574 0.267578
vt1 0.372559 0.336914
vt1 0.374756 0.197266
vt1 0.330566 0.266113
vt1 0.643066 0.689209
vt1 0.662109 0.631592
vt1 0.700684 0.713867
vt1 0.662109 0.796143
vt1 0.574707 0.536865
vt1 0.608887 0.784668
vt1 0.574707 0.890747
vt1 0.477783 0.523682
vt1 0.452148 0.466309
vt1 0.473877 0.903687
vt1 0.451660 0.961304
vt1 0.251709 0.476562
vt1 0.303711 0.435547
vt1 0.133667 0.440918
vt1 0.251221 0.950928
vt1 0.303223 0.991936
vt1 0.133179 0.986336
vt1 0.118347 0.490234
vt1 0.078979 0.455566
vt1 0.008064 0.713379
vt1 0.118042 0.937073
vt1 0.078613 0.971786
vt1 0.065186 0.713623
vt1 0.139038 0.511475
vt1 0.138672 0.915100
vt1 0.223267 0.929565
vt1 0.087524 0.710205
vt1 0.099243 0.714355
vt1 0.207886 0.513428
vt1 0.227539 0.713623
vt1 0.479980 0.878357
vt1 0.406250 0.522217
vt1 0.476562 0.716797
vt1 0.562500 0.620361
vt1 0.599609 0.736084
vt1 0.615723 0.725830
vn -0.354331 -0.708661 -0.614173
vn 0.826772 0.267716 -0.496063
vn -0.228346 0.661417 -0.708661
vn 0.708661 -0.354331 -0.614173
vn -0.267717 0.826771 -0.496063
vn -0.661417 -0.228347 -0.708661
vn -0.708661 0.354331 -0.614173
vn 0.267717 -0.826772 -0.496063
vn 0.661417 0.228346 -0.708661
vn -0.708661 0.354331 -0.614173
vn 0.267717 -0.826772 -0.496063
vn 0.661417 0.228346 -0.708661
vn -0.433071 0.661417 -0.614173
vn -0.188976 -0.842520 -0.496063
vn 0.692913 -0.141732 -0.708661
vn -0.661417 -0.433071 -0.614173
vn 0.842520 -0.188976 -0.496063
vn 0.141732 0.692913 -0.708661
vn 0.724409 -0.488189 -0.488189
vn 0.496063 0.708661 -0.503937
vn -0.393701 -0.590551 -0.700787
vn -0.716535 0.503937 -0.488189
vn 0.000000 1.000000 -0.000000
vn 0.000000 0.307086 -0.952756
vn 0.000000 1.000000 -0.000000
vn 0.000000 0.228346 -0.976378
vn 0.000000 -0.251969 -0.968504
vn 0.000000 -0.299213 -0.952756
vn 0.000000 -1.000000 0.023622
vn 0.000000 -1.000000 0.023622
vn -1.000000 -0.023622 0.000000
vn -1.000000 -0.023622 0.000000
vn -1.000000 -0.023622 0.000000
vn -1.000000 -0.015748 0.000000
vn -1.000000 -0.015748 0.000000
vn -1.000000 -0.015748 0.000000
vn -1.000000 -0.015748 0.000000
vn -1.000000 0.000000 0.000000
vn -1.000000 0.000000 0.000000
vn -1.000000 0.000000 0.000000
vn 0.000000 0.716535 0.692913
vn 0.000000 1.000000 -0.000000
vn 0.000000 1.000000 -0.023622
vn 0.000000 0.275591 0.960630
vn 0.000000 0.094488 0.992126
vn 0.000000 -0.070866 1.000000
vn 0.000000 -0.094488 0.992126
vn 0.000000 -0.196850 0.984252
vn 0.000000 -0.543307 0.834646
vn 0.000000 -1.000000 0.047244
vn 0.000000 -1.000000 0.000000
vn 1.000000 0.000000 0.000000
vn 1.000000 -0.015748 0.000000
vn 1.000000 0.000000 0.000000
vn 1.000000 -0.015748 0.000000
vn 1.000000 -0.015748 0.000000
vn 1.000000 -0.015748 0.000000
vn 1.000000 -0.023622 0.000000
vn 1.000000 -0.023622 0.000000
vn 1.000000 -0.023622 0.000000
vn -0.039370 0.000000 1.000000
vn -0.023622 0.000000 1.000000
vn -0.023622 0.007874 1.000000
vn -0.055118 0.023622 1.000000
vn 0.000000 -0.015748 1.000000
vn -0.015748 -0.007874 1.000000
vn 0.039370 0.000000 1.000000
vn 0.015748 -0.007874 1.000000
vn 0.000000 -0.283464 0.960630
vn -0.055118 0.000000 1.000000
vn 0.055118 0.000000 1.000000
vn -0.047244 0.000000 1.000000
vn 0.047244 0.000000 1.000000
vn 0.023622 0.007874 1.000000
vn 0.023622 0.000000 1.000000
vn 0.055118 0.023622 1.000000
vn 0.062992 0.000000 1.000000
vn -0.062992 0.000000 1.000000
vn 0.070866 0.015748 1.000000
vn -0.070866 0.007874 1.000000
vn 0.000000 0.125984 0.992126
vn 0.015748 0.015748 1.000000
vn -0.015748 0.015748 1.000000
vn 0.000000 0.015748 1.000000
vn -0.165354 -0.472441 -0.866142
vn -0.496063 -0.692913 -0.519685
vn 0.000000 -0.763779 -0.645669
vn 0.496063 -0.692913 -0.519685
vn -0.716535 -0.559055 -0.409449
vn 0.330709 -0.409449 -0.850394
vn 0.716535 -0.559055 -0.409449
vn -0.543307 -0.259843 -0.795275
vn -0.897638 -0.322835 -0.307087
vn 0.535433 -0.244095 -0.811023
vn 0.897638 -0.322835 -0.307087
vn -0.582677 -0.047244 -0.811023
vn -0.921260 -0.110236 -0.370079
vn -0.889764 0.181102 -0.417323
vn 0.582677 -0.047244 -0.811023
vn 0.921260 -0.110236 -0.370079
vn 0.889764 0.181102 -0.417323
vn -0.511811 0.307086 -0.803150
vn -0.622047 0.535433 -0.574803
vn 0.000000 0.803149 -0.598425
vn 0.511811 0.307086 -0.803150
vn 0.622047 0.535433 -0.574803
vn 0.000000 0.488189 -0.874016
vn -0.157480 0.094488 -0.984252
vn 0.157480 0.094488 -0.984252
vn 0.165354 -0.000000 -0.984252
vn 0.000000 0.204724 -0.976378
vn 0.000000 0.456693 -0.889764
vn -0.173228 0.007874 -0.984252
vn 0.000000 0.047244 -1.000000
vn 0.212598 -0.094488 -0.976378
vn -0.204724 -0.062992 -0.976378
vn 0.000000 -0.094488 -0.992126
vn -0.228346 -0.196850 -0.952756
vn 0.149606 -0.393701 -0.905512
vn 0.062992 -0.181102 -0.984252
tan -0.342613 0.703267 -0.613801 1.000000
tan -0.430219 0.808543 -0.280675 1.000000
tan -0.107136 0.702895 0.690557 1.000000
tan 0.703267 0.342613 0.613801 1.000000
tan 0.808544 0.430219 0.280674 1.000000
tan 0.702895 0.107136 -0.690557 1.000000
tan -0.703267 -0.342613 0.613801 1.000000
tan -0.808544 -0.430219 0.280675 1.000000
tan -0.702895 -0.107136 -0.690557 1.000000
tan -0.703267 -0.342613 0.613801 1.000000
tan -0.808544 -0.430219 0.280675 1.000000
tan -0.702895 -0.107136 -0.690557 1.000000
tan 0.526009 -0.300391 -0.694401 1.000000
tan 0.400769 -0.524335 0.737864 1.000000
tan 0.594829 -0.436233 0.668857 1.000000
tan -0.300391 -0.526009 0.694401 1.000000
tan -0.524335 -0.400769 -0.737863 1.000000
tan -0.436233 -0.594829 -0.668857 1.000000
tan -0.688077 -0.450245 -0.570773 1.000000
tan -0.742761 0.109244 -0.577531 1.000000
tan -0.800918 -0.122698 0.553351 1.000000
tan -0.698989 -0.461901 0.549135 1.000000
tan 0.000000 -0.000000 -1.000000 1.000000
tan 0.000000 -0.952756 -0.307086 1.000000
tan 0.000000 -0.000000 -1.000000 1.000000
tan 0.000000 -0.976378 -0.228346 1.000000
tan 0.000000 -0.968504 0.251969 1.000000
tan 0.000000 -0.952756 0.299213 1.000000
tan 0.000000 0.023622 1.000000 1.000000
tan 0.000000 0.023622 1.000000 1.000000
tan 0.000000 0.000000 1.000000 1.000000
tan 0.000000 0.000000 1.000000 1.000000
tan 0.000000 0.000000 1.000000 1.000000
tan 0.000000 0.000000 1.000000 1.000000
tan 0.000000 0.000000 1.000000 1.000000
tan 0.000000 0.000000 1.000000 1.000000
tan 0.000000 0.000000 1.000000 1.000000
tan 0.000000 0.000000 1.000000 1.000000
tan 0.000000 0.000000 1.000000 1.000000
tan 0.000000 0.000000 1.000000 1.000000
tan 0.998264 0.005456 -0.005642 1.000000
tan 1.000000 0.000000 0.000000 1.000000
tan 1.000000 0.000000 0.000000 1.000000
tan 0.960630 -0.007564 0.002170 1.000000
tan 0.992126 0.007812 -0.000744 1.000000
tan 1.000000 -0.007874 -0.000558 1.000000
tan 0.992126 0.007812 0.000744 1.000000
tan 0.984252 -0.015500 -0.003100 1.000000
tan 0.936698 0.039432 0.025668 1.000000
tan 1.000000 0.000000 0.000000 1.000000
tan 1.000000 0.000000 0.000000 1.000000
tan 0.000000 -0.000000 -1.000000 1.000000
tan 0.000000 -0.000000 -1.000000 1.000000
tan 0.000000 -0.000000 -1.000000 1.000000
tan 0.000000 -0.000000 -1.000000 1.000000
tan 0.000000 -0.000000 -1.000000 1.000000
tan 0.000000 -0.000000 -1.000000 1.000000
tan 0.000000 -0.000000 -1.000000 1.000000
tan 0.000000 -0.000000 -1.000000 1.000000
tan 0.000000 -0.000000 -1.000000 1.000000
tan 1.000000 -0.062992 0.039370 1.000000
tan 1.000000 0.007874 0.023622 1.000000
tan 1.000000 0.070866 0.023064 1.000000
tan 1.000000 0.062992 0.053630 1.000000
tan 1.000000 -0.007874 -0.000124 1.000000
tan 0.992126 -0.125984 0.014632 1.000000
tan 1.000000 0.031496 -0.039370 1.000000
tan 0.992126 0.094488 -0.014880 1.000000
tan 0.960630 -0.015128 -0.004464 1.000000
tan 1.000000 -0.015748 0.055118 1.000000
tan 1.000000 -0.015748 -0.055118 1.000000
tan 1.000000 -0.023622 0.047244 1.000000
tan 1.000000 -0.007874 -0.047244 1.000000
tan 0.992126 -0.110236 -0.022568 1.000000
tan 1.000000 -0.047244 -0.023622 1.000000
tan 0.992126 -0.094488 -0.052452 1.000000
tan 1.000000 -0.015748 -0.062992 1.000000
tan 1.000000 -0.015748 0.062992 1.000000
tan 1.000000 -0.015748 -0.070618 1.000000
tan 1.000000 -0.015748 0.070990 1.000000
tan 0.992126 -0.015624 0.001984 1.000000
tan 1.000000 -0.070866 -0.014632 1.000000
tan 1.000000 0.039370 0.015128 1.000000
tan 1.000000 -0.007874 0.000124 1.000000
tan -0.885362 -0.079546 0.212412 1.000000
tan -0.847046 0.307831 0.398103 1.000000
tan -0.985058 0.000000 0.000000 1.000000
tan -0.847046 -0.307831 -0.398103 1.000000
tan -0.687829 0.481989 0.545601 1.000000
tan -0.898258 0.044268 -0.370637 1.000000
tan -0.687829 -0.481989 -0.545601 1.000000
tan -0.803460 -0.032984 0.559675 1.000000
tan -0.396925 0.282349 0.863414 1.000000
tan -0.816790 0.032054 -0.548887 1.000000
tan -0.394383 -0.275281 -0.863414 1.000000
tan -0.811024 -0.019158 0.583793 1.000000
tan -0.378759 0.066712 0.922996 1.000000
tan -0.440697 -0.143840 0.877178 1.000000
tan -0.811024 0.019158 -0.583793 1.000000
tan -0.378759 -0.066712 -0.922996 1.000000
tan -0.440697 0.143840 -0.877178 1.000000
tan -0.840350 -0.066216 0.510199 1.000000
tan -0.761920 -0.242544 0.598611 1.000000
tan -0.972410 0.000000 0.000000 1.000000
tan -0.840350 0.066216 -0.510199 1.000000
tan -0.761920 0.242544 -0.598611 1.000000
tan -0.944820 0.013764 0.007688 1.000000
tan -0.976502 -0.108500 0.145824 1.000000
tan -0.976502 0.100750 -0.146568 1.000000
tan -0.984252 0.031000 -0.165354 1.000000
tan -0.976378 0.007688 0.001612 1.000000
tan -0.904148 -0.014012 -0.007192 1.000000
tan -0.984252 -0.038750 0.172918 1.000000
tan -1.000000 0.000000 0.000000 1.000000
tan -0.976378 -0.015376 -0.211110 1.000000
tan -0.976378 0.007688 0.204228 1.000000
tan -0.992126 0.000000 0.000000 1.000000
tan -0.952756 0.022506 0.223696 1.000000
tan -0.908612 -0.001178 -0.149606 1.000000
tan -0.984252 -0.000000 -0.062992 1.000000
f 3/3/3 2/2/2 1/1/1
f 6/6/6 5/5/5 4/4/4
f 9/9/9 8/8/8 7/7/7
f 12/12/12 11/11/11 10/10/10
f 15/15/15 14/14/14 13/13/13
f 18/18/18 17/17/17 16/16/16
f 21/21/21 20/20/20 19/19/19
f 21/21/21 22/22/22 20/20/20
f 25/25/25 24/24/24 23/23/23
f 24/24/24 26/26/26 23/23/23
f 27/27/27 26/26/26 24/24/24
f 28/28/28 26/26/26 27/27/27
f 28/28/28 27/27/27 29/29/29
f 30/30/30 29/29/29 27/27/27
f 33/33/33 32/32/32 31/31/31
f 32/32/32 34/34/34 31/31/31
f 32/32/32 35/35/35 34/34/34
f 36/36/36 34/34/34 35/35/35
f 37/37/37 34/34/34 36/36/36
f 37/37/37 36/36/36 38/38/38
f 39/39/39 37/37/37 38/38/38
f 40/40/40 39/39/39 38/38/38
f 43/43/43 42/42/42 41/41/41
f 44/44/44 43/43/43 41/41/41
f 45/45/45 44/44/44 41/41/41
f 45/45/45 46/46/46 44/44/44
f 45/45/45 47/47/47 46/46/46
f 46/46/46 47/47/47 48/48/48
f 48/48/48 47/47/47 49/49/49
f 48/48/48 49/49/49 50/50/50
f 51/51/51 50/50/50 49/49/49
f 54/54/54 53/53/53 52/52/52
f 54/54/54 55/55/55 53/53/53
f 56/56/56 53/53/53 55/55/55
f 57/57/57 56/56/56 55/55/55
f 56/56/56 57/57/57 58/58/58
f 58/58/58 59/59/59 56/56/56
f 60/60/60 56/56/56 59/59/59
f 63/63/63 62/62/62 61/61/61
f 64/64/64 63/63/63 61/61/61
f 66/66/66 65/65/65 61/61/61
f 65/65/65 68/68/68 67/67/67
f 65/65/65 69/69/69 61/61/61
f 69/69/69 65/65/65 67/67/67
f 70/70/70 61/61/61 69/69/69
f 71/71/71 70/70/70 69/69/69
f 69/69/69 67/67/67 71/71/71
f 61/61/61 70/70/70 72/72/72
f 64/64/64 61/61/61 72/72/72
f 73/73/73 71/71/71 67/67/67
f 67/67/67 75/75/75 74/74/74
f 76/76/76 67/67/67 74/74/74
f 73/73/73 67/67/67 76/76/76
f 72/72/72 73/73/73 77/77/77
f 77/77/77 73/73/73 76/76/76
f 77/77/77 78/78/78 72/72/72
f 64/64/64 72/72/72 78/78/78
f 76/76/76 79/79/79 77/77/77
f 78/78/78 80/80/80 64/64/64
f 76/76/76 81/81/81 79/79/79
f 81/81/81 80/80/80 79/79/79
f 80/80/80 81/81/81 64/64/64
f 81/81/81 76/76/76 82/82/82
f 81/81/81 83/83/83 64/64/64
f 82/82/82 84/84/84 81/81/81
f 84/84/84 83/83/83 81/81/81
f 87/87/87 86/86/86 85/85/85
f 87/87/87 85/85/85 88/88/88
f 86/86/86 89/89/89 85/85/85
f 85/85/85 90/90/90 88/88/88
f 88/88/88 90/90/90 91/91/91
f 89/89/89 92/92/92 85/85/85
f 89/89/89 93/93/93 92/92/92
f 90/90/90 94/94/94 91/91/91
f 91/91/91 94/94/94 95/95/95
f 96/96/96 92/92/92 93/93/93
f 97/97/97 96/96/96 93/93/93
f 98/98/98 96/96/96 97/97/97
f 94/94/94 99/99/99 95/95/95
f 99/99/99 100/100/100 95/95/95
f 99/99/99 101/101/101 100/100/100
f 102/102/102 96/96/96 98/98/98
f 103/103/103 102/102/102 98/98/98
f 103/103/103 104/104/104 102/102/102
f 99/99/99 105/105/105 101/101/101
f 105/105/105 106/106/106 101/101/101
f 106/106/106 105/105/105 104/104/104
f 104/104/104 107/107/107 102/102/102
f 105/105/105 107/107/107 104/104/104
f 96/96/96 102/102/102 108/108/108
f 108/108/108 102/102/102 107/107/107
f 105/105/105 99/99/99 109/109/109
f 107/107/107 105/105/105 109/109/109
f 99/99/99 110/110/110 109/109/109
f 99/99/99 94/94/94 110/110/110
f 111/111/111 107/107/107 109/109/109
f 111/111/111 108/108/108 107/107/107
f 112/112/112 111/111/111 109/109/109
f 111/111/111 112/112/112 108/108/108
f 112/112/112 109/109/109 110/110/110
f 108/108/108 112/112/112 113/113/113
f 114/114/114 112/112/112 110/110/110
f 112/112/112 114/114/114 113/113/113
f 94/94/94 115/115/115 110/110/110
f 114/114/114 110/110/110 115/115/115
f 94/94/94 90/90/90 115/115/115
f 116/116/116 108/108/108 113/113/113
f 113/113/113 114/114/114 116/116/116
f 116/116/116 96/96/96 108/108/108
f 92/92/92 96/96/96 116/116/116
f 114/114/114 117/117/117 116/116/116
f 117/117/117 114/114/114 115/115/115
f 118/118/118 92/92/92 116/116/116
f 116/116/116 117/117/117 118/118/118
f 85/85/85 92/92/92 118/118/118
f 117/117/117 115/115/115 119/119/119
f 117/117/117 119/119/119 118/118/118
f 120/120/120 119/119/119 115/115/115
f 120/120/120 118/118/118 119/119/119
f 118/118/118 120/120/120 85/85/85
f 90/90/90 120/120/120 115/115/115
f 90/90/90 85/85/85 120/120/120
