mtllib SM_Shield02_LOD4.mtl
g SM_Shield02_LOD4
#Vertices 34
#Indices 90
#Section 0 Offset 0 NumIndices 90 MaterialIndex 0 MI_SwordsandShields
v -0.016717 0.136440 0.011379
v -0.022001 -0.064721 0.006063
v -0.014507 0.130697 -0.018013
v -0.014507 0.130697 -0.018013
v 0.007494 -0.064940 -0.012363
v 0.026675 0.134501 0.004653
v -0.022001 -0.064721 0.006063
v 0.007494 -0.064940 -0.012363
v -0.022001 -0.064721 0.006063
v -0.016717 0.136440 0.011379
v 0.026675 0.134501 0.004653
v -0.014507 0.130697 -0.018013
v 0.254959 0.269203 0.002742
v 0.236821 -0.039794 0.002101
v 0.121152 -0.249992 -0.001586
v -0.014507 0.130697 -0.018013
v -0.000560 0.335723 -0.013255
v -0.255009 0.269192 0.002751
v 0.007494 -0.064940 -0.012363
v -0.011889 -0.336472 -0.003501
v -0.157052 -0.202738 0.000941
v -0.238450 -0.027168 0.002590
v -0.078664 -0.267669 -0.054184
v -0.157052 -0.202738 0.000941
v -0.011889 -0.336472 -0.003501
v 0.121152 -0.249992 -0.001586
v -0.238450 -0.027168 0.002590
v 0.164768 -0.119131 -0.043563
v 0.236821 -0.039794 0.002101
v -0.224771 0.214469 -0.044815
v -0.255009 0.269192 0.002751
v -0.000560 0.335723 -0.013255
v 0.216659 0.212710 -0.069248
v 0.254959 0.269203 0.002742
vt 0.738281 0.980011
vt 0.872070 0.982880
vt 0.742676 0.998938
vt 0.970215 0.774292
vt 0.983398 0.644531
vt 0.997559 0.775513
vt 0.965332 0.644531
vt 0.203125 0.806519
vt 0.202759 0.828491
vt 0.074341 0.822754
vt 0.074585 0.795288
vt 0.055908 0.821533
vt 0.036011 0.378418
vt 0.248047 0.392578
vt 0.395752 0.463379
vt 0.133667 0.562012
vt -0.003538 0.554443
vt 0.041229 0.728760
vt 0.269531 0.544678
vt 0.454346 0.555420
vt 0.366211 0.657959
vt 0.244263 0.709229
vt 0.422363 0.136719
vt 0.388916 0.071289
vt 0.476562 0.182617
vt 0.420654 0.285156
vt 0.265381 0.008301
vt 0.322510 0.307129
vt 0.274170 0.374023
vt 0.092712 0.041016
vt 0.050690 0.013184
vt 0.005775 0.190918
vt 0.096741 0.335938
vt 0.050415 0.370117
vt1 0.515625 0.965454
vt1 0.710938 0.969635
vt1 0.521484 0.993114
vt1 0.589844 0.913940
vt1 0.779785 0.932800
vt1 0.588379 0.953369
vt1 0.779785 0.906677
vt1 0.030243 0.478027
vt1 -0.000711 0.477539
vt1 0.007286 0.282715
vt1 0.046021 0.283203
vt1 0.008980 0.254883
vt1 0.932617 0.018066
vt1 0.621582 0.039062
vt1 0.405518 0.143066
vt1 0.789551 0.287598
vt1 0.990723 0.276855
vt1 0.924805 0.532227
vt1 0.590332 0.262695
vt1 0.319580 0.277832
vt1 0.448730 0.428223
vt1 0.627441 0.503418
vt1 0.623535 0.632812
vt1 0.574707 0.536865
vt1 0.703125 0.700439
vt1 0.621094 0.851196
vt1 0.393799 0.444336
vt1 0.477539 0.883362
vt1 0.406738 0.981567
vt1 0.140991 0.492676
vt1 0.079407 0.451660
vt1 0.013680 0.712891
vt1 0.146973 0.925537
vt1 0.079041 0.975647
vn -1.000000 -0.015748 0.000000
vn -1.000000 -0.015748 0.000000
vn -1.000000 -0.007874 0.000000
vn 0.000000 -0.448819 -0.889764
vn 0.000000 0.393701 -0.921260
vn 0.000000 -0.409449 -0.913386
vn 0.000000 0.385827 -0.921260
vn 0.000000 -0.291338 0.960630
vn 0.000000 -0.354331 0.937008
vn 0.000000 0.259843 0.968504
vn 0.000000 0.299213 0.952756
vn 0.000000 1.000000 -0.000000
vn -0.031496 -0.007874 1.000000
vn -0.015748 0.007874 1.000000
vn -0.055118 0.031496 1.000000
vn 0.000000 0.000000 1.000000
vn 0.000000 -0.228346 0.976378
vn 0.031496 -0.007874 1.000000
vn 0.000000 0.007874 1.000000
vn 0.007874 0.110236 0.992126
vn 0.055118 0.023622 1.000000
vn 0.015748 0.000000 1.000000
vn -0.125984 -0.259843 -0.960630
vn -0.716535 -0.559055 -0.409449
vn -0.157480 -0.748031 -0.637795
vn 0.661417 -0.622047 -0.425197
vn -0.929134 -0.259843 -0.275590
vn 0.259843 -0.125984 -0.960630
vn 0.921260 -0.283465 -0.275590
vn -0.291339 0.125984 -0.944882
vn -0.700787 0.472441 -0.535433
vn 0.000000 0.779527 -0.622047
vn 0.251969 0.133858 -0.960630
vn 0.700787 0.464567 -0.535433
tan 0.000000 0.000000 1.000000 1.000000
tan 0.000000 0.000000 1.000000 1.000000
tan 0.000000 0.000000 1.000000 1.000000
tan 0.000000 -0.889764 0.448819 1.000000
tan 0.000000 -0.921260 -0.393701 1.000000
tan 0.000000 -0.913386 0.409449 1.000000
tan 0.000000 -0.921260 -0.385827 1.000000
tan 0.962924 -0.007564 -0.002294 1.000000
tan 0.939798 0.044268 0.016740 1.000000
tan 0.970550 0.015252 -0.004092 1.000000
tan 0.952756 -0.015004 0.004712 1.000000
tan 1.000000 -0.000000 -0.007874 1.000000
tan 1.000000 -0.086614 0.030814 1.000000
tan 1.000000 0.062992 0.015252 1.000000
tan 1.000000 0.062992 0.053134 1.000000
tan 1.000000 -0.015748 0.000000 1.000000
tan 0.976378 -0.015376 -0.003596 1.000000
tan 1.000000 0.047244 -0.031124 1.000000
tan 1.000000 -0.007874 0.000062 1.000000
tan 0.992126 -0.023436 -0.005270 1.000000
tan 0.992126 -0.094488 -0.052452 1.000000
tan 0.992126 -0.094488 -0.015624 1.000000
tan -0.960630 0.000000 0.125984 1.000000
tan -0.687829 0.481989 0.545601 1.000000
tan -0.914254 0.038378 0.180730 1.000000
tan -0.744808 -0.510757 -0.411371 1.000000
tan -0.334429 0.239259 0.901916 1.000000
tan -0.960630 0.007564 -0.260834 1.000000
tan -0.342861 -0.251721 -0.887222 1.000000
tan -0.944882 -0.044640 0.285387 1.000000
tan -0.685225 -0.261330 0.666253 1.000000
tan -0.920268 0.000000 0.000000 1.000000
tan -0.960630 0.022692 -0.248806 1.000000
tan -0.681815 0.261330 -0.665633 1.000000
f 3/3/3 2/2/2 1/1/1
f 6/6/6 5/5/5 4/4/4
f 4/4/4 5/5/5 7/7/7
f 10/10/10 9/9/9 8/8/8
f 10/10/10 8/8/8 11/11/11
f 11/11/11 12/12/12 10/10/10
f 15/15/15 14/14/14 13/13/13
f 15/15/15 13/13/13 16/16/16
f 16/16/16 13/13/13 17/17/17
f 17/17/17 18/18/18 16/16/16
f 15/15/15 16/16/16 19/19/19
f 19/19/19 20/20/20 15/15/15
f 21/21/21 20/20/20 19/19/19
f 19/19/19 16/16/16 21/21/21
f 16/16/16 18/18/18 21/21/21
f 21/21/21 18/18/18 22/22/22
f 25/25/25 24/24/24 23/23/23
f 25/25/25 23/23/23 26/26/26
f 24/24/24 27/27/27 23/23/23
f 23/23/23 28/28/28 26/26/26
f 26/26/26 28/28/28 29/29/29
f 30/30/30 23/23/23 27/27/27
f 31/31/31 30/30/30 27/27/27
f 31/31/31 32/32/32 30/30/30
f 23/23/23 33/33/33 28/28/28
f 30/30/30 33/33/33 23/23/23
f 28/28/28 33/33/33 29/29/29
f 32/32/32 33/33/33 30/30/30
f 33/33/33 34/34/34 29/29/29
f 34/34/34 33/33/33 32/32/32
