mtllib SM_Shield01_LOD5.mtl
g SM_Shield01_LOD5
#Vertices 36
#Indices 72
#Section 0 Offset 0 NumIndices 72 MaterialIndex 0 MI_SwordsandShields
v -0.295802 -0.116826 -0.010941
v -0.058834 -0.326250 -0.017607
v -0.178205 -0.257472 -0.024729
v 0.004587 0.165117 -0.020589
v -0.014751 0.146553 0.016743
v -0.024684 -0.094598 0.003638
v 0.004587 0.165117 -0.020589
v -0.024684 -0.094598 0.003638
v 0.028298 -0.090066 0.013697
v 0.052008 0.306364 -0.008102
v -0.154553 0.265345 0.006580
v -0.298748 0.085301 -0.001194
v -0.159600 0.267087 -0.025701
v 0.028298 -0.090066 0.013697
v -0.024684 -0.094598 0.003638
v -0.014751 0.146553 0.016743
v 0.004587 0.165117 -0.020589
v -0.298748 0.085301 -0.001194
v -0.154553 0.265345 0.006580
v 0.052008 0.306364 -0.008102
v 0.178226 -0.237166 0.008889
v 0.263749 0.178104 -0.003496
v 0.311271 -0.089392 -0.039898
v -0.295802 -0.116826 -0.010941
v -0.058834 -0.326250 -0.017607
v 0.052008 0.306364 -0.008102
v 0.311271 -0.089392 -0.039898
v 0.263749 0.178104 -0.003496
v 0.026985 0.178773 -0.034092
v -0.159600 0.267087 -0.025701
v 0.178226 -0.237166 0.008889
v -0.298748 0.085301 -0.001194
v -0.122875 -0.084555 -0.025161
v -0.178205 -0.257472 -0.024729
v -0.058834 -0.326250 -0.017607
v -0.295802 -0.116826 -0.010941
vt 0.390381 0.972656
vt 0.595703 0.961792
vt 0.508789 0.974869
vt 0.808594 0.772461
vt 0.833984 0.785156
vt 0.825195 0.945618
vt 0.014481 0.448242
vt -0.003139 0.275391
vt 0.028717 0.278320
vt -0.027756 0.977676
vt 0.107910 0.959564
vt 0.253174 0.971161
vt 0.109802 0.982239
vt 0.093933 0.752686
vt 0.089050 0.720215
vt 0.252441 0.727051
vt 0.267334 0.746338
vt 0.498291 0.117676
vt 0.611816 0.008789
vt 0.754883 0.013672
vt 0.774414 0.384766
vt 0.876953 0.122070
vt 0.878418 0.303223
vt 0.477051 0.250977
vt 0.608398 0.416016
vt 0.509766 0.467773
vt 0.494385 0.791382
vt 0.425293 0.615723
vt 0.572754 0.541992
vt 0.649902 0.419922
vt 0.623047 0.831055
vt 0.795410 0.481445
vt 0.747559 0.641846
vt 0.840820 0.725342
vt 0.795898 0.811646
vt 0.863770 0.600342
vt1 0.500000 0.071777
vt1 0.760254 0.058105
vt1 0.650391 0.074707
vt1 0.052338 0.267578
vt1 0.084534 0.283691
vt1 0.073669 0.484375
vt1 0.120605 0.480469
vt1 0.098511 0.263672
vt1 0.138428 0.267578
vt1 -0.029465 0.078125
vt1 0.142334 0.055664
vt1 0.326416 0.069824
vt1 0.144775 0.083496
vt1 0.000440 0.326660
vt1 0.041138 0.320801
vt1 0.032715 0.525146
vt1 0.008461 0.543701
vt1 0.831543 0.608643
vt1 0.968262 0.466309
vt1 0.961914 0.287598
vt1 0.497559 0.263184
vt1 0.826172 0.134277
vt1 0.599609 0.132812
vt1 0.664551 0.635010
vt1 0.458252 0.470703
vt1 0.106384 0.518555
vt1 0.087341 0.923035
vt1 0.000886 0.703613
vt1 0.185181 0.611084
vt1 0.281494 0.458496
vt1 0.248291 0.972672
vt1 0.463867 0.535400
vt1 0.403564 0.736084
vt1 0.520508 0.840332
vt1 0.464111 0.948303
vt1 0.549316 0.684326
vn -0.921260 -0.346457 -0.165354
vn -0.259843 -0.968504 0.015748
vn -0.511811 -0.811024 -0.267716
vn -1.000000 0.000000 0.000000
vn -1.000000 0.000000 0.000000
vn -1.000000 0.000000 0.000000
vn 0.000000 -0.645669 -0.763779
vn 0.000000 0.700787 -0.716535
vn 0.000000 0.511811 -0.858268
vn -0.078740 0.976378 -0.196850
vn -0.480315 0.874016 0.047244
vn -0.944882 0.307087 0.086614
vn -0.456693 0.755905 -0.472441
vn 0.000000 -0.354331 0.937008
vn 0.000000 -0.377953 0.929134
vn 0.000000 0.346457 0.937008
vn 0.000000 0.511811 0.858268
vn 0.677165 -0.251968 0.692913
vn -0.023622 0.149606 0.992126
vn -0.078740 -0.716535 0.692913
vn -0.377953 0.480315 0.787401
vn -0.551181 -0.417323 0.724409
vn -0.622047 0.204724 0.755905
vn 0.669291 0.259843 0.692913
vn 0.141732 0.417323 0.897638
vn -0.149606 -0.637795 -0.755905
vn -0.692913 0.094488 -0.716535
vn 0.055118 0.062992 -1.000000
vn 0.141732 0.559055 -0.818898
vn 0.307087 -0.590551 -0.748031
vn 0.196850 -0.062992 -0.976378
vn 0.716535 -0.212598 -0.661417
vn -0.598425 -0.385827 -0.700787
vn 0.307087 0.574803 -0.763779
vn 0.125984 -0.220473 -0.968504
vn -0.133858 0.047244 -0.992126
tan -0.165354 0.000000 0.921260 1.000000
tan -0.000124 0.015748 0.966458 1.000000
tan -0.004216 -0.267716 0.819084 1.000000
tan 0.000000 1.000000 -0.000000 1.000000
tan 0.000000 1.000000 -0.000000 1.000000
tan 0.000000 1.000000 -0.000000 1.000000
tan 0.000000 -0.763779 0.645669 1.000000
tan 0.000000 -0.716535 -0.700787 1.000000
tan 0.000000 -0.858268 -0.511811 1.000000
tan 0.000000 0.196850 0.976378 1.000000
tan 0.002976 -0.047244 0.904272 1.000000
tan 0.086614 0.001364 0.940046 1.000000
tan -0.070680 0.468721 0.818277 1.000000
tan -0.937008 0.000000 0.000000 1.000000
tan -0.938062 0.000000 0.000000 1.000000
tan -0.939736 0.000000 0.000000 1.000000
tan -0.890508 0.000000 0.000000 1.000000
tan -0.675553 0.086552 0.691673 1.000000
tan -0.171864 0.976502 -0.151342 1.000000
tan 0.021638 0.693533 0.719635 1.000000
tan -0.035836 0.793353 -0.501147 1.000000
tan 0.213094 0.732469 0.584103 1.000000
tan -0.754294 0.010850 -0.623659 1.000000
tan -0.156860 0.959886 -0.208445 1.000000
tan -0.046686 0.894290 -0.408395 1.000000
tan -0.038874 0.759439 -0.633083 1.000000
tan -0.714303 0.055862 0.698121 1.000000
tan -0.503937 0.866142 0.026784 1.000000
tan -0.131316 0.808234 0.529047 1.000000
tan -0.123690 0.736251 -0.632029 1.000000
tan -0.353649 0.907186 -0.129828 1.000000
tan -0.658069 0.021700 -0.719883 1.000000
tan -0.580259 0.502697 0.218736 1.000000
tan -0.183582 0.769917 0.505611 1.000000
tan -0.571951 0.777853 -0.251473 1.000000
tan -0.367165 0.921818 0.093434 1.000000
f 3/3/3 2/2/2 1/1/1
f 6/6/6 5/5/5 4/4/4
f 9/9/9 8/8/8 7/7/7
f 12/12/12 11/11/11 10/10/10
f 10/10/10 13/13/13 12/12/12
f 16/16/16 15/15/15 14/14/14
f 16/16/16 14/14/14 17/17/17
f 20/20/20 19/19/19 18/18/18
f 20/20/20 18/18/18 21/21/21
f 22/22/22 20/20/20 21/21/21
f 23/23/23 22/22/22 21/21/21
f 18/18/18 24/24/24 21/21/21
f 24/24/24 25/25/25 21/21/21
f 28/28/28 27/27/27 26/26/26
f 26/26/26 27/27/27 29/29/29
f 30/30/30 26/26/26 29/29/29
f 29/29/29 27/27/27 31/31/31
f 32/32/32 30/30/30 29/29/29
f 29/29/29 31/31/31 33/33/33
f 32/32/32 29/29/29 33/33/33
f 34/34/34 33/33/33 31/31/31
f 34/34/34 32/32/32 33/33/33
f 31/31/31 35/35/35 34/34/34
f 36/36/36 32/32/32 34/34/34
