mtllib SM_Shield02_LOD5.mtl
g SM_Shield02_LOD5
#Vertices 17
#Indices 48
#Section 0 Offset 0 NumIndices 48 MaterialIndex 0 MI_SwordsandShields
v 0.254959 0.269203 0.002742
v 0.236821 -0.039794 0.002101
v 0.121152 -0.249992 -0.001586
v -0.000585 0.337091 -0.020549
v -0.011889 -0.336472 -0.003501
v -0.217826 -0.110782 0.004247
v -0.255009 0.269192 0.002751
v 0.236821 -0.039794 0.002101
v 0.254959 0.269203 0.002742
v 0.240418 0.111369 -0.071493
v 0.121152 -0.249992 -0.001586
v -0.000585 0.337091 -0.020549
v -0.078664 -0.267669 -0.054184
v -0.011889 -0.336472 -0.003501
v -0.217826 -0.110782 0.004247
v -0.224771 0.214469 -0.044815
v -0.255009 0.269192 0.002751
vt 0.036011 0.378418
vt 0.248047 0.392578
vt 0.395752 0.463379
vt -0.006649 0.554443
vt 0.454346 0.555420
vt 0.303467 0.699707
vt 0.041229 0.728760
vt 0.274170 0.374023
vt 0.050415 0.370117
vt 0.163940 0.352051
vt 0.420654 0.285156
vt 0.007145 0.191406
vt 0.422363 0.136719
vt 0.476562 0.182617
vt 0.325684 0.020020
vt 0.092712 0.041016
vt 0.050690 0.013184
vt1 0.932617 0.018066
vt1 0.621582 0.039062
vt1 0.405518 0.143066
vt1 0.995117 0.276855
vt1 0.319580 0.277832
vt1 0.540527 0.489746
vt1 0.924805 0.532227
vt1 0.406738 0.981567
vt1 0.079041 0.975647
vt1 0.245361 0.949005
vt1 0.621094 0.851196
vt1 0.015686 0.712891
vt1 0.623535 0.632812
vt1 0.703125 0.700439
vt1 0.482178 0.461914
vt1 0.140991 0.492676
vt1 0.079407 0.451660
vn -0.031496 -0.007874 1.000000
vn -0.015748 0.007874 1.000000
vn -0.055118 0.031496 1.000000
vn 0.000000 -0.110236 0.992126
vn 0.007874 0.110236 0.992126
vn 0.055118 0.007874 1.000000
vn 0.031496 -0.007874 1.000000
vn 0.921260 -0.283465 -0.275590
vn 0.700787 0.464567 -0.535433
vn 0.244094 0.031496 -0.968504
vn 0.661417 -0.622047 -0.425197
vn 0.000000 0.771653 -0.637795
vn -0.125984 -0.259843 -0.960630
vn -0.157480 -0.748031 -0.637795
vn -0.889764 -0.385827 -0.236220
vn -0.291339 0.125984 -0.944882
vn -0.700787 0.472441 -0.535433
tan 1.000000 -0.086614 0.030814 1.000000
tan 1.000000 0.062992 0.015252 1.000000
tan 1.000000 0.062992 0.053134 1.000000
tan 0.992126 -0.015624 -0.001736 1.000000
tan 0.992126 -0.023436 -0.005270 1.000000
tan 0.992126 -0.094488 -0.053940 1.000000
tan 1.000000 0.047244 -0.031124 1.000000
tan -0.342861 -0.251721 -0.887222 1.000000
tan -0.681815 0.261330 -0.665633 1.000000
tan -0.968504 0.007626 -0.243846 1.000000
tan -0.744808 -0.510757 -0.411371 1.000000
tan -0.885052 0.000000 0.000000 1.000000
tan -0.960630 0.000000 0.125984 1.000000
tan -0.914254 0.038378 0.180730 1.000000
tan -0.390601 0.418501 0.787711 1.000000
tan -0.944882 -0.044640 0.285387 1.000000
tan -0.685225 -0.261330 0.666253 1.000000
f 3/3/3 2/2/2 1/1/1
f 3/3/3 1/1/1 4/4/4
f 4/4/4 5/5/5 3/3/3
f 6/6/6 5/5/5 4/4/4
f 4/4/4 7/7/7 6/6/6
f 10/10/10 9/9/9 8/8/8
f 11/11/11 10/10/10 8/8/8
f 9/9/9 10/10/10 12/12/12
f 13/13/13 10/10/10 11/11/11
f 14/14/14 13/13/13 11/11/11
f 14/14/14 15/15/15 13/13/13
f 12/12/12 10/10/10 16/16/16
f 16/16/16 10/10/10 13/13/13
f 16/16/16 13/13/13 15/15/15
f 17/17/17 12/12/12 16/16/16
f 17/17/17 16/16/16 15/15/15
